<svg xmlns="http://www.w3.org/2000/svg" xmlns:xlink="http://www.w3.org/1999/xlink" width="500" zoomAndPan="magnify" viewBox="0 0 375 374.999991" height="500" preserveAspectRatio="xMidYMid meet" version="1.0"><defs><g/><clipPath id="40c4da1995"><path d="M 59 52.351562 L 303 52.351562 L 303 318 L 59 318 Z M 59 52.351562 " clip-rule="nonzero"/></clipPath></defs><g fill="#ffffff" fill-opacity="1"><g transform="translate(30.361678, 167.718391)"><g><path d="M 32.34375 1.234375 C 26.632812 1.234375 21.488281 0.0390625 16.90625 -2.34375 C 12.320312 -4.738281 8.726562 -8.082031 6.125 -12.375 C 3.53125 -16.675781 2.234375 -21.554688 2.234375 -27.015625 C 2.234375 -32.472656 3.53125 -37.347656 6.125 -41.640625 C 8.726562 -45.941406 12.320312 -49.285156 16.90625 -51.671875 C 21.488281 -54.066406 26.632812 -55.265625 32.34375 -55.265625 C 37.59375 -55.265625 42.273438 -54.335938 46.390625 -52.484375 C 50.503906 -50.628906 53.898438 -47.953125 56.578125 -44.453125 L 45.078125 -34.1875 C 41.734375 -38.414062 37.796875 -40.53125 33.265625 -40.53125 C 29.460938 -40.53125 26.398438 -39.304688 24.078125 -36.859375 C 21.765625 -34.410156 20.609375 -31.128906 20.609375 -27.015625 C 20.609375 -22.898438 21.765625 -19.617188 24.078125 -17.171875 C 26.398438 -14.734375 29.460938 -13.515625 33.265625 -13.515625 C 37.796875 -13.515625 41.734375 -15.625 45.078125 -19.84375 L 56.578125 -9.578125 C 53.898438 -6.078125 50.503906 -3.398438 46.390625 -1.546875 C 42.273438 0.304688 37.59375 1.234375 32.34375 1.234375 Z M 32.34375 1.234375 "/></g></g></g><g fill="#ffffff" fill-opacity="1"><g transform="translate(87.790131, 167.718391)"><g><path d="M 50.015625 -42.21875 L 50.015625 0 L 33.421875 0 L 33.421875 -4.015625 C 31.878906 -2.421875 30.078125 -1.222656 28.015625 -0.421875 C 25.960938 0.367188 23.773438 0.765625 21.453125 0.765625 C 16.109375 0.765625 11.8125 -0.863281 8.5625 -4.125 C 5.320312 -7.394531 3.703125 -12.320312 3.703125 -18.90625 L 3.703125 -42.21875 L 21.15625 -42.21875 L 21.15625 -21.921875 C 21.15625 -19.035156 21.613281 -16.972656 22.53125 -15.734375 C 23.457031 -14.503906 24.820312 -13.890625 26.625 -13.890625 C 28.320312 -13.890625 29.738281 -14.570312 30.875 -15.9375 C 32.007812 -17.300781 32.578125 -19.453125 32.578125 -22.390625 L 32.578125 -42.21875 Z M 50.015625 -42.21875 "/></g></g></g><g fill="#ffffff" fill-opacity="1"><g transform="translate(141.667916, 167.718391)"><g><path d="M 34.96875 -1.46875 C 32.34375 0.0195312 28.765625 0.765625 24.234375 0.765625 C 18.316406 0.765625 13.765625 -0.660156 10.578125 -3.515625 C 7.390625 -6.367188 5.796875 -10.648438 5.796875 -16.359375 L 5.796875 -27.171875 L 0 -27.171875 L 0 -39.90625 L 5.796875 -39.90625 L 5.796875 -51.71875 L 23.234375 -51.71875 L 23.234375 -39.90625 L 31.875 -39.90625 L 31.875 -27.171875 L 23.234375 -27.171875 L 23.234375 -16.515625 C 23.234375 -15.234375 23.566406 -14.226562 24.234375 -13.5 C 24.898438 -12.78125 25.773438 -12.421875 26.859375 -12.421875 C 28.347656 -12.421875 29.660156 -12.804688 30.796875 -13.578125 Z M 34.96875 -1.46875 "/></g></g></g><g fill="#ffffff" fill-opacity="1"><g transform="translate(177.174762, 167.718391)"><g><path d="M 42.609375 -12.734375 L 42.609375 0 L 2.3125 0 L 2.3125 -10.03125 L 19.765625 -29.484375 L 2.9375 -29.484375 L 2.9375 -42.21875 L 41.765625 -42.21875 L 41.765625 -32.1875 L 24.3125 -12.734375 Z M 42.609375 -12.734375 "/></g></g></g><g fill="#ffffff" fill-opacity="1"><g transform="translate(221.172381, 167.718391)"><g><path d="M 47.625 -28.25 C 50.8125 -27.0625 53.28125 -25.335938 55.03125 -23.078125 C 56.78125 -20.816406 57.65625 -18.085938 57.65625 -14.890625 C 57.65625 -10.160156 55.695312 -6.492188 51.78125 -3.890625 C 47.875 -1.296875 42.21875 0 34.8125 0 L 4.40625 0 L 4.40625 -54.03125 L 33.265625 -54.03125 C 40.472656 -54.03125 45.914062 -52.742188 49.59375 -50.171875 C 53.269531 -47.597656 55.109375 -44.175781 55.109375 -39.90625 C 55.109375 -37.382812 54.476562 -35.117188 53.21875 -33.109375 C 51.957031 -31.109375 50.09375 -29.488281 47.625 -28.25 Z M 22.3125 -41.296875 L 22.3125 -33.265625 L 30.796875 -33.265625 C 34.753906 -33.265625 36.734375 -34.601562 36.734375 -37.28125 C 36.734375 -39.957031 34.753906 -41.296875 30.796875 -41.296875 Z M 33.265625 -12.734375 C 37.273438 -12.734375 39.28125 -14.148438 39.28125 -16.984375 C 39.28125 -19.816406 37.273438 -21.234375 33.265625 -21.234375 L 22.3125 -21.234375 L 22.3125 -12.734375 Z M 33.265625 -12.734375 "/></g></g></g><g fill="#ffffff" fill-opacity="1"><g transform="translate(280.839325, 167.718391)"><g><path d="M 50.859375 -42.21875 L 33.5 0.84375 C 31.289062 6.351562 28.535156 10.210938 25.234375 12.421875 C 21.941406 14.640625 17.90625 15.75 13.125 15.75 C 10.757812 15.75 8.378906 15.398438 5.984375 14.703125 C 3.585938 14.003906 1.695312 13.09375 0.3125 11.96875 L 6.09375 0 C 6.96875 0.664062 7.957031 1.203125 9.0625 1.609375 C 10.175781 2.023438 11.242188 2.234375 12.265625 2.234375 C 14.171875 2.234375 15.613281 1.671875 16.59375 0.546875 L -1.15625 -42.21875 L 16.75 -42.21875 L 25.46875 -19.609375 L 34.34375 -42.21875 Z M 50.859375 -42.21875 "/></g></g></g><g fill="#ffffff" fill-opacity="1"><g transform="translate(-4.711964, 267.009356)"><g><path d="M 80.3125 0 L 80.078125 -37.5625 L 62.1875 -7.421875 L 49.9375 -7.421875 L 32.03125 -36.265625 L 32.03125 0 L 6.71875 0 L 6.71875 -82.4375 L 29.5625 -82.4375 L 56.40625 -38.515625 L 82.546875 -82.4375 L 105.40625 -82.4375 L 105.640625 0 Z M 80.3125 0 "/></g></g></g><g fill="#ffffff" fill-opacity="1"><g transform="translate(107.636482, 267.009356)"><g><path d="M 62.890625 -14.375 L 31.5625 -14.375 L 26.03125 0 L -2.234375 0 L 33.796875 -82.4375 L 61.125 -82.4375 L 97.15625 0 L 68.421875 0 Z M 55.234375 -34.390625 L 47.21875 -55.109375 L 39.21875 -34.390625 Z M 55.234375 -34.390625 "/></g></g></g><g fill="#ffffff" fill-opacity="1"><g transform="translate(202.555582, 267.009356)"><g><path d="M 55.703125 -29.90625 L 55.703125 0 L 27.90625 0 L 27.90625 -30.265625 L -3.171875 -82.4375 L 26.140625 -82.4375 L 42.984375 -53.9375 L 59.9375 -82.4375 L 86.796875 -82.4375 Z M 55.703125 -29.90625 "/></g></g></g><g fill="#ffffff" fill-opacity="1"><g transform="translate(286.169181, 267.009356)"><g><path d="M 55.703125 -29.90625 L 55.703125 0 L 27.90625 0 L 27.90625 -30.265625 L -3.171875 -82.4375 L 26.140625 -82.4375 L 42.984375 -53.9375 L 59.9375 -82.4375 L 86.796875 -82.4375 Z M 55.703125 -29.90625 "/></g></g></g><g clip-path="url(#40c4da1995)"><path fill="#000000" d="M 286.1875 303.738281 C 284.015625 305.367188 278.878906 304.847656 277.285156 302.558594 C 275.605469 300.160156 276.078125 295.414062 278.007812 293.347656 C 280.394531 290.785156 284.058594 293.035156 285.714844 295.207031 C 287.257812 297.5 289.015625 301.625 286.1875 303.738281 Z M 293.359375 273.761719 C 297.839844 268.066406 302.925781 263.824219 302.367188 255.941406 C 301.296875 241.121094 283.199219 227.59375 273.914062 217.882812 C 258.183594 201.457031 241.4375 185.035156 229.035156 165.851562 C 223.550781 157.355469 218.621094 149.238281 212.269531 141.328125 C 205.003906 132.308594 197.625 123.398438 189.878906 114.808594 C 179.480469 103.277344 167.769531 91.300781 154.746094 82.703125 C 148.117188 78.324219 140.679688 76.875 133.164062 77.1875 C 128.171875 74.714844 123.527344 71.699219 118.835938 68.714844 C 117.019531 64.027344 115.632812 59.179688 113.863281 54.480469 C 113.777344 54.242188 113.648438 54.050781 113.511719 53.886719 C 113.089844 52.984375 112.078125 52.398438 111.027344 53.121094 C 100.488281 60.394531 90.566406 68.492188 80.757812 76.695312 C 78.351562 78.722656 57.46875 93.152344 59.289062 95.636719 C 63.640625 101.605469 64.839844 109.027344 66.5625 116.066406 C 68.542969 124.148438 72.09375 131.84375 76.679688 138.789062 C 73.585938 144.054688 80.035156 152.28125 85.878906 153.144531 C 87.34375 157.683594 86.152344 161.949219 87.203125 166.535156 C 88.109375 170.539062 89.765625 173.574219 92.308594 176.769531 C 98.339844 184.320312 109.269531 189.300781 117.242188 194.417969 C 117.492188 194.582031 117.742188 194.667969 117.992188 194.703125 C 118.734375 194.960938 119.621094 194.8125 120.140625 193.945312 C 120.585938 193.203125 121.027344 192.496094 121.585938 191.875 C 122.09375 191.832031 122.59375 191.566406 122.921875 190.988281 C 124 189.082031 125.699219 187.679688 127.058594 185.992188 C 127.601562 185.328125 127.742188 184.457031 127.292969 183.742188 C 127.351562 183.113281 127.144531 182.441406 126.515625 181.984375 C 120.535156 177.710938 115.75 172.125 110.242188 167.300781 C 105.117188 162.8125 95.144531 153.675781 103.476562 147.378906 C 108.011719 156.453125 112.65625 165.621094 119.0625 173.304688 C 128.070312 184.15625 142.324219 189.214844 151.890625 199.25 C 156.425781 204.007812 160.40625 208.53125 165.597656 212.703125 C 171.464844 217.425781 177.441406 221.929688 182.914062 227.117188 C 193.945312 237.554688 203.269531 249.988281 214.914062 259.742188 C 225.207031 268.367188 233.121094 279.050781 243.289062 287.789062 C 248.109375 291.941406 253.660156 295.65625 259.761719 296.921875 C 259.796875 296.964844 259.804688 297.015625 259.839844 297.058594 C 267.792969 308.148438 277.070312 322.410156 292.574219 315.828125 C 307.382812 309.5625 294.53125 287.976562 289.085938 279.480469 C 289.203125 279.230469 289.335938 278.992188 289.472656 278.742188 C 290.757812 277.113281 292.03125 275.441406 293.359375 273.761719 " fill-opacity="1" fill-rule="nonzero"/><path fill="#000000" d="M 76.101562 119.53125 C 76.5 118.375 76.886719 117.203125 77.265625 116.039062 C 77.09375 115.839844 76.949219 115.617188 76.84375 115.324219 C 75.714844 112.121094 74.308594 109.085938 73.792969 105.75 C 71.578125 105.613281 69.207031 105.226562 67.304688 104.070312 C 68.207031 107.035156 68.898438 110.078125 69.640625 113.109375 C 70.128906 115.074219 70.671875 116.996094 71.292969 118.902344 C 72.984375 118.890625 74.621094 119.003906 76.101562 119.53125 Z M 79.492188 136.316406 C 80.800781 135.796875 82.285156 135.796875 83.730469 136.125 C 81.84375 132.609375 79.542969 129.308594 77.535156 125.855469 C 76.164062 123.46875 74.871094 122.777344 72.59375 122.632812 C 74.398438 127.40625 76.679688 131.972656 79.492188 136.316406 Z M 87.972656 114.953125 C 87.238281 113.007812 86.5 111.042969 85.6875 109.121094 C 85.386719 108.957031 85.160156 108.75 85.007812 108.507812 C 82.695312 107.40625 80.171875 106.585938 77.621094 106.378906 C 78.199219 109.042969 79.414062 111.558594 80.328125 114.125 C 82.886719 114.332031 85.421875 114.78125 87.972656 114.953125 Z M 87.367188 135.074219 C 88.074219 134.53125 88.800781 134.015625 89.558594 133.523438 C 86.308594 128.679688 84.902344 122.71875 80.636719 118.546875 C 80.550781 118.460938 80.480469 118.375 80.402344 118.273438 C 80.015625 119.425781 79.621094 120.589844 79.25 121.761719 C 79.328125 121.847656 79.414062 121.933594 79.5 122.035156 C 80.773438 123.8125 81.6875 125.8125 82.871094 127.636719 C 84.457031 130.078125 86.050781 132.488281 87.367188 135.074219 Z M 88.859375 147.90625 C 89.894531 145.457031 88.316406 142.761719 86.292969 141.347656 C 85.109375 140.503906 81.851562 138.519531 80.421875 139.96875 C 77.015625 143.433594 86.066406 153.222656 88.859375 147.90625 Z M 93.980469 119.867188 C 95.015625 117.824219 96.316406 115.988281 98.117188 114.636719 C 95.53125 113.601562 93.003906 112.402344 90.464844 111.230469 C 91.566406 114.144531 92.636719 117.074219 93.980469 119.867188 Z M 94.144531 130.980469 C 94.351562 130.878906 94.558594 130.816406 94.765625 130.792969 C 93.996094 129.144531 93.402344 127.464844 93.230469 125.65625 C 92.972656 125.507812 92.738281 125.304688 92.558594 125.011719 C 91.332031 123.003906 90.34375 120.882812 89.453125 118.726562 C 88.074219 118.695312 86.703125 118.566406 85.34375 118.402344 C 88.34375 122.492188 89.910156 127.449219 92.765625 131.695312 C 93.230469 131.457031 93.6875 131.214844 94.144531 130.980469 Z M 114.578125 67.828125 C 114.269531 66.984375 113.957031 66.132812 113.664062 65.269531 C 110.382812 67.871094 107.417969 69.734375 105.03125 71.320312 C 102.367188 73.058594 100.304688 74.421875 98.789062 75.515625 C 97.238281 76.59375 96.210938 77.375 95.515625 77.851562 C 94.808594 78.308594 94.4375 78.453125 94.332031 78.332031 C 94.230469 78.238281 94.394531 77.875 94.925781 77.210938 C 95.445312 76.550781 96.339844 75.542969 97.804688 74.292969 C 99.246094 72.992188 101.253906 71.464844 103.875 69.613281 C 106.382812 67.835938 109.503906 65.804688 112.90625 63.019531 C 112.304688 61.21875 111.691406 59.417969 111.0625 57.609375 C 110.941406 57.703125 110.820312 57.789062 110.699219 57.875 C 111.269531 58.738281 111.546875 59.589844 111.667969 60.289062 C 111.8125 61.175781 111.796875 61.859375 111.726562 62.359375 C 111.578125 63.367188 111.269531 63.703125 110.96875 63.71875 C 110.65625 63.71875 110.390625 63.347656 110.140625 62.445312 C 109.890625 61.675781 109.761719 60.453125 108.898438 59.167969 C 108.648438 59.339844 108.398438 59.523438 108.148438 59.695312 C 108.234375 59.875 108.320312 60.039062 108.398438 60.195312 C 108.484375 60.523438 108.570312 60.851562 108.667969 61.144531 C 108.691406 61.425781 108.726562 61.695312 108.753906 61.945312 C 108.832031 62.933594 108.769531 63.617188 108.753906 64.117188 C 108.710938 64.632812 108.691406 64.976562 108.632812 65.226562 C 108.570312 65.476562 108.460938 65.625 108.320312 65.683594 C 108.175781 65.742188 108.011719 65.699219 107.804688 65.492188 C 107.597656 65.289062 107.363281 64.917969 107.183594 64.339844 C 107.003906 63.78125 106.890625 63.054688 106.726562 62.226562 C 106.640625 61.78125 106.539062 61.367188 106.355469 60.988281 C 105.617188 61.53125 104.890625 62.089844 104.148438 62.640625 C 104.304688 62.976562 104.433594 63.289062 104.519531 63.589844 C 104.625 64.027344 104.703125 64.441406 104.761719 64.796875 C 104.832031 65.492188 104.832031 66.054688 104.804688 66.449219 C 104.71875 67.25 104.496094 67.605469 104.191406 67.648438 C 103.890625 67.707031 103.582031 67.457031 103.238281 66.691406 C 102.953125 66.097656 102.78125 65.105469 102.347656 64.011719 C 101.96875 64.3125 101.582031 64.589844 101.210938 64.875 C 101.375 65.140625 101.503906 65.40625 101.609375 65.640625 C 101.859375 66.242188 101.976562 66.777344 102.054688 67.25 C 102.203125 68.199219 102.203125 68.90625 102.183594 69.441406 C 102.140625 70.492188 101.96875 70.886719 101.667969 70.972656 C 101.375 71.070312 100.976562 70.699219 100.632812 69.664062 C 100.460938 69.15625 100.296875 68.492188 100.054688 67.707031 C 99.925781 67.234375 99.703125 66.675781 99.453125 66.226562 C 99.039062 66.554688 98.632812 66.882812 98.21875 67.207031 C 98.546875 67.8125 98.6875 68.371094 98.789062 68.804688 C 98.902344 69.457031 98.945312 69.933594 98.945312 70.285156 C 98.945312 71.007812 98.816406 71.328125 98.523438 71.484375 C 98.253906 71.59375 97.847656 71.429688 97.4375 70.722656 C 97.117188 70.25 96.875 69.398438 96.480469 68.578125 C 96.109375 68.871094 95.738281 69.171875 95.367188 69.457031 C 95.53125 70.019531 95.667969 70.542969 95.773438 70.992188 C 95.902344 71.820312 95.945312 72.480469 95.945312 72.972656 C 95.945312 73.972656 95.753906 74.386719 95.445312 74.4375 C 95.132812 74.480469 94.789062 74.152344 94.410156 73.285156 C 94.203125 72.835938 94.023438 72.257812 93.789062 71.507812 C 93.710938 71.328125 93.644531 71.113281 93.566406 70.90625 C 93.230469 71.179688 92.886719 71.464844 92.546875 71.742188 C 92.59375 72.050781 92.652344 72.378906 92.679688 72.664062 C 92.753906 73.414062 92.722656 73.988281 92.695312 74.421875 C 92.636719 75.273438 92.410156 75.660156 92.117188 75.722656 C 91.816406 75.78125 91.496094 75.515625 91.144531 74.652344 C 90.980469 74.300781 90.859375 73.800781 90.722656 73.222656 C 90.136719 73.714844 89.558594 74.1875 88.980469 74.652344 C 89.144531 75.066406 89.308594 75.453125 89.4375 75.808594 C 89.636719 76.429688 89.765625 76.9375 89.765625 77.359375 C 89.746094 78.238281 89.53125 78.53125 89.214844 78.558594 C 88.921875 78.574219 88.566406 78.332031 88.257812 77.789062 C 88.074219 77.523438 87.824219 77.144531 87.574219 76.652344 C 87.472656 76.472656 87.351562 76.28125 87.246094 76.074219 C 86.671875 76.566406 86.101562 77.039062 85.523438 77.523438 C 86.335938 79.339844 86.410156 80.703125 86.421875 81.53125 C 86.410156 82.496094 86.203125 82.875 85.886719 82.933594 C 85.59375 82.976562 85.257812 82.683594 84.886719 81.839844 C 84.574219 81.210938 84.308594 80.246094 83.765625 78.988281 C 83.316406 79.359375 82.871094 79.730469 82.445312 80.097656 C 82.988281 80.867188 83.230469 81.605469 83.378906 82.183594 C 83.550781 82.933594 83.585938 83.511719 83.601562 83.960938 C 83.585938 84.8125 83.421875 85.167969 83.128906 85.269531 C 82.828125 85.363281 82.457031 85.105469 82.058594 84.3125 C 81.871094 83.925781 81.664062 83.410156 81.421875 82.804688 C 81.25 82.375 81.007812 81.945312 80.730469 81.546875 C 80.378906 81.839844 80.015625 82.140625 79.679688 82.433594 C 80.464844 83.925781 80.628906 85.0625 80.792969 85.820312 C 80.902344 86.828125 80.757812 87.269531 80.464844 87.371094 C 80.179688 87.457031 79.800781 87.191406 79.292969 86.320312 C 78.929688 85.785156 78.558594 84.890625 77.980469 83.847656 C 77.464844 84.296875 76.949219 84.734375 76.429688 85.167969 C 76.457031 85.226562 76.515625 85.304688 76.542969 85.363281 C 76.742188 85.828125 76.894531 86.261719 77.035156 86.648438 C 77.242188 87.398438 77.328125 88.007812 77.34375 88.464844 C 77.371094 89.355469 77.199219 89.75 76.894531 89.828125 C 76.601562 89.914062 76.25 89.664062 75.835938 88.878906 C 75.492188 88.363281 75.222656 87.5 74.722656 86.605469 C 74.242188 87 73.765625 87.414062 73.277344 87.8125 C 73.957031 89.207031 74.398438 90.351562 74.457031 91.128906 C 74.507812 92.042969 74.292969 92.371094 74 92.414062 C 73.707031 92.472656 73.335938 92.214844 72.984375 91.628906 C 72.636719 91.136719 72.179688 90.429688 71.542969 89.257812 C 71.277344 89.5 71.019531 89.722656 70.734375 89.957031 C 70.984375 90.414062 71.207031 90.84375 71.378906 91.214844 C 71.707031 91.972656 71.914062 92.578125 72.035156 93.066406 C 72.285156 94.007812 72.179688 94.453125 71.90625 94.566406 C 71.621094 94.703125 71.207031 94.480469 70.613281 93.738281 C 70.320312 93.371094 69.992188 92.851562 69.578125 92.1875 C 69.414062 91.9375 69.242188 91.65625 69.042969 91.363281 C 68.683594 91.671875 68.320312 91.972656 67.949219 92.265625 C 69.433594 96.007812 69.492188 97.375 68.957031 97.601562 C 68.441406 97.808594 67.597656 96.9375 66.183594 93.738281 C 65.898438 93.980469 65.613281 94.214844 65.320312 94.453125 C 65.984375 96.230469 66.683594 98.03125 67.777344 99.523438 C 67.90625 99.703125 68.070312 99.867188 68.214844 100.019531 C 70.085938 98.675781 71.828125 97.453125 73.414062 96.253906 C 75.363281 94.617188 77.121094 93.136719 78.707031 91.808594 C 81.808594 89.042969 84.230469 86.878906 86.085938 85.226562 C 89.800781 81.917969 91.351562 80.804688 91.566406 81.03125 C 91.773438 81.238281 90.609375 82.761719 87.179688 86.363281 C 85.445312 88.15625 83.136719 90.457031 80.078125 93.324219 C 78.480469 94.722656 76.722656 96.253906 74.765625 97.953125 C 73.378906 99.046875 71.828125 100.160156 70.183594 101.339844 C 71.433594 101.855469 72.835938 102.003906 74.222656 102.0625 C 79.144531 95.886719 85.636719 90.613281 91.402344 85.269531 C 98.546875 78.660156 105.960938 72.414062 114.578125 67.828125 Z M 117.96875 190.496094 C 118.085938 190.324219 118.242188 190.160156 118.378906 189.996094 C 110.511719 182.972656 97.496094 176.484375 94.332031 166.222656 C 92.886719 161.585938 93.195312 155.152344 92.082031 149.679688 C 92.074219 149.714844 92.074219 149.738281 92.039062 149.773438 C 91.980469 149.945312 91.875 150.085938 91.789062 150.195312 C 91.152344 151.246094 90.410156 152.015625 89.582031 152.488281 C 90.800781 156.289062 90.402344 159.511719 90.679688 163.664062 C 91.039062 169.109375 93.667969 173.617188 97.839844 177.046875 C 103.976562 182.121094 111.210938 186.222656 117.96875 190.496094 Z M 119.441406 73.472656 C 118.285156 72.75 117.140625 72.007812 115.984375 71.285156 C 107.882812 75.660156 100.660156 81.53125 94.023438 87.890625 C 88.953125 92.722656 83.023438 97.332031 78.394531 102.71875 C 80.9375 102.992188 83.464844 103.769531 85.816406 104.8125 C 90.550781 90.765625 106.167969 78.960938 119.441406 73.472656 Z M 120.949219 187.367188 C 121.777344 186.316406 122.699219 185.351562 123.605469 184.363281 C 119.183594 181.011719 115.390625 177.070312 111.339844 173.28125 C 107.660156 169.835938 102.996094 166.785156 100.117188 162.585938 C 95.839844 156.410156 95.609375 148.578125 101.804688 144.070312 C 100.546875 141.554688 99.273438 139.054688 97.960938 136.617188 C 97.453125 135.695312 96.917969 134.796875 96.417969 133.894531 C 96.296875 133.996094 96.167969 134.082031 96.003906 134.179688 C 93.753906 135.316406 91.453125 136.53125 89.480469 138.125 C 95.101562 142.339844 95.710938 149.550781 96.394531 156.796875 C 97.144531 164.714844 99.761719 169.652344 105.960938 174.902344 C 110.925781 179.105469 116.191406 182.929688 120.949219 187.367188 Z M 125.449219 78.074219 C 124.335938 77.480469 123.242188 76.859375 122.0625 76.386719 C 109.519531 81.152344 93.359375 93.03125 89.125 106.621094 C 92.988281 108.320312 96.746094 110.242188 100.710938 111.664062 C 100.460938 108.808594 100.546875 105.96875 101.046875 103.261719 C 102.847656 93.679688 108.054688 82.8125 118.070312 79.859375 C 120.492188 79.132812 122.964844 78.53125 125.449219 78.074219 Z M 180.371094 219.742188 C 181.578125 218.828125 182.894531 217.925781 184.035156 216.933594 C 181.6875 214.253906 179.050781 211.609375 176.34375 209.203125 C 174.664062 210.195312 173.15625 211.375 171.984375 212.925781 C 174.820312 215.140625 177.644531 217.390625 180.371094 219.742188 Z M 265.15625 290.355469 C 266.828125 290.761719 268.414062 290.761719 269.863281 290.519531 C 265.5625 290.226562 262.027344 287.683594 258.234375 283.824219 C 251.261719 276.734375 243.9375 270.046875 237.359375 262.585938 C 230.042969 254.277344 223.605469 245.257812 215.796875 237.390625 C 209.113281 230.652344 202.582031 221.214844 194.503906 216.191406 C 178.25 206.085938 167.8125 189.773438 152.875 178.125 C 145.695312 172.523438 137.53125 167.199219 132.085938 159.761719 C 125.679688 151.015625 118.511719 143.292969 110.960938 135.546875 C 106.8125 130.902344 103.519531 124.65625 101.8125 118.109375 C 101.910156 120.277344 102.117188 123.070312 102.78125 126.0625 C 103.582031 129.308594 104.933594 131.988281 106.011719 133.851562 C 107.269531 135.730469 108.113281 136.953125 107.839844 137.195312 C 107.582031 137.402344 106.339844 136.660156 104.683594 135.023438 C 103.03125 133.167969 101.238281 130.238281 100.347656 126.636719 C 99.683594 123.726562 99.640625 121.003906 99.847656 118.832031 C 97.203125 122.183594 95.773438 125.070312 98.523438 129.972656 C 99.847656 132.359375 101.152344 134.738281 102.410156 137.140625 C 105.339844 142.761719 108.132812 148.457031 111.21875 153.96875 C 114.105469 159.140625 117.078125 164.449219 120.613281 169.238281 C 125.050781 175.269531 131.394531 179.363281 137.335938 183.800781 C 141.773438 187.109375 146.480469 190.023438 150.925781 193.304688 C 154.789062 196.148438 156.976562 200.476562 160.519531 203.628906 C 163.269531 206.066406 166.175781 208.367188 169.085938 210.667969 C 170.699219 208.550781 172.769531 206.921875 175.105469 205.636719 C 175.128906 205.621094 175.179688 205.609375 175.207031 205.59375 C 175.84375 205.035156 176.851562 204.828125 177.691406 205.566406 C 181.257812 208.636719 184.230469 212.203125 187.359375 215.71875 C 188.042969 216.484375 188.117188 217.570312 187.394531 218.335938 C 186.050781 219.757812 184.585938 220.949219 183.078125 222.15625 C 183.902344 222.921875 184.730469 223.707031 185.53125 224.5 C 194.503906 233.539062 202.832031 243.414062 212.011719 252.21875 C 216.15625 256.183594 220.898438 259.449219 225.027344 263.429688 C 228.65625 266.945312 231.722656 270.925781 235.109375 274.664062 C 241.652344 281.859375 250.597656 291.8125 260.710938 293.492188 C 262.941406 293.863281 265.339844 293.578125 267.734375 292.847656 C 266.742188 292.871094 265.734375 292.804688 264.734375 292.621094 C 261.199219 292.003906 257.605469 290.582031 254.074219 288.675781 C 253.195312 288.160156 252.324219 287.703125 251.480469 287.152344 C 250.667969 286.589844 249.859375 286.03125 249.074219 285.480469 C 248.316406 284.902344 247.652344 284.316406 246.953125 283.753906 L 246.453125 283.324219 L 246.324219 283.222656 L 246.203125 283.117188 L 246.144531 283.058594 L 245.910156 282.808594 C 245.601562 282.480469 245.28125 282.152344 244.980469 281.835938 C 242.59375 279.214844 240.980469 276.585938 239.507812 274.511719 C 238.792969 273.449219 238.085938 272.578125 237.507812 271.761719 C 236.859375 271.019531 236.34375 270.355469 235.871094 269.824219 C 234.84375 268.789062 234.34375 268.167969 234.445312 268.039062 C 234.550781 267.890625 235.273438 268.273438 236.472656 269.074219 C 237.066406 269.503906 237.75 270.125 238.542969 270.832031 C 239.257812 271.589844 240.09375 272.425781 240.910156 273.449219 C 242.59375 275.414062 244.351562 277.929688 246.644531 280.25 C 246.945312 280.53125 247.222656 280.808594 247.53125 281.109375 L 247.753906 281.324219 L 247.816406 281.386719 L 248.460938 281.902344 C 249.160156 282.4375 249.867188 283.039062 250.597656 283.574219 C 251.332031 284.066406 252.074219 284.566406 252.832031 285.066406 C 253.597656 285.558594 254.445312 285.996094 255.269531 286.488281 C 258.605469 288.304688 262.011719 289.683594 265.15625 290.355469 Z M 286.1875 303.738281 C 289.015625 301.625 287.257812 297.5 285.714844 295.207031 C 284.058594 293.035156 280.394531 290.785156 278.007812 293.347656 C 276.078125 295.414062 275.605469 300.160156 277.285156 302.558594 C 278.878906 304.847656 284.015625 305.367188 286.1875 303.738281 Z M 292.964844 311.15625 C 299.953125 303.667969 291.867188 290.554688 286.871094 282.851562 C 285.179688 284.980469 283.171875 286.839844 281.042969 288.589844 C 283.359375 288.734375 285.628906 289.976562 287.429688 291.691406 C 287.195312 291.363281 286.972656 291.054688 286.75 290.804688 C 286.292969 290.183594 286.085938 289.789062 286.207031 289.648438 C 286.316406 289.519531 286.738281 289.683594 287.402344 290.082031 C 288.066406 290.417969 288.953125 291.21875 289.945312 292.296875 C 290.835938 293.40625 291.851562 294.828125 292.488281 296.65625 C 293.167969 298.449219 293.625 300.609375 293.332031 302.894531 C 293.082031 305.1875 292.09375 307.3125 290.695312 308.777344 C 289.335938 310.347656 287.566406 311 286.1875 311.441406 C 285.464844 311.585938 284.816406 311.664062 284.25 311.734375 C 283.6875 311.792969 283.1875 311.691406 282.792969 311.664062 C 282 311.570312 281.578125 311.441406 281.578125 311.269531 C 281.59375 311.105469 282 310.90625 282.714844 310.699219 C 283.066406 310.578125 283.523438 310.535156 284 310.363281 C 284.492188 310.183594 285.015625 309.992188 285.628906 309.769531 C 286.707031 309.183594 288.042969 308.527344 288.972656 307.253906 C 289.617188 306.460938 290.117188 305.46875 290.464844 304.375 C 289.945312 305.367188 289.179688 306.238281 288.050781 306.933594 C 284.179688 309.3125 276.5625 308.753906 274.09375 304.417969 C 272.570312 301.757812 272.171875 297.972656 273.105469 294.785156 C 271.535156 295.800781 269.878906 296.644531 268.113281 297 C 266.914062 297.230469 265.734375 297.351562 264.570312 297.386719 C 267.347656 301.359375 270.113281 305.46875 273.691406 308.734375 C 278.570312 313.183594 287.308594 317.207031 292.964844 311.15625 Z M 295.445312 257.007812 C 296.980469 256.828125 296.9375 254.957031 296.832031 253.804688 C 296.566406 251.820312 294.53125 248.761719 292.117188 250.253906 C 290.480469 251.289062 290.859375 253.890625 291.851562 255.269531 C 292.652344 256.371094 294.058594 257.191406 295.445312 257.007812 Z M 298.210938 260.992188 C 298.332031 260.5 298.402344 260.007812 298.460938 259.535156 C 297.675781 260.207031 296.6875 260.644531 295.445312 260.707031 C 292.179688 260.886719 289.160156 258.707031 287.945312 255.742188 C 286.601562 252.40625 287.574219 247.074219 291.851562 246.472656 C 292.980469 246.308594 294.015625 246.367188 294.929688 246.601562 C 292.195312 242.121094 288.402344 238.0625 285.316406 234.839844 C 278.085938 227.300781 270.707031 219.933594 263.578125 212.324219 C 249.132812 196.875 233.585938 181.65625 223.121094 163.097656 C 212.167969 143.664062 195.558594 125.484375 179.921875 109.601562 C 171.855469 101.417969 163.226562 94.066406 154.210938 86.941406 C 148.296875 82.289062 141.066406 80.539062 133.757812 80.726562 C 133.300781 80.988281 132.738281 81.054688 132.164062 80.804688 C 129.144531 80.996094 126.136719 81.503906 123.242188 82.253906 C 112.535156 85.035156 104.953125 94.144531 104.476562 105.597656 C 104.0625 115.296875 107.019531 125.613281 113.570312 132.9375 C 118.285156 137.769531 123.15625 142.527344 127.492188 147.714844 C 131.035156 151.972656 133.980469 156.925781 137.867188 160.855469 C 145.972656 169.03125 155.953125 174.960938 164.132812 183.050781 C 171.285156 190.125 177.664062 198.078125 185.25 204.722656 C 192.4375 211.003906 200.109375 215.320312 206.46875 222.507812 C 213.578125 230.566406 221.800781 237.511719 228.429688 246.023438 C 234.757812 254.175781 241.488281 262.023438 248.761719 269.367188 C 252.71875 273.371094 256.847656 277.234375 260.839844 281.207031 C 266.519531 286.859375 272.113281 288.441406 279.300781 283.660156 C 282.179688 281.738281 284.265625 279.40625 286.273438 276.878906 C 286.335938 276.757812 286.394531 276.636719 286.457031 276.527344 C 286.636719 276.121094 286.894531 275.855469 287.195312 275.707031 C 287.902344 274.777344 288.628906 273.839844 289.386719 272.871094 C 292.179688 269.324219 297.132812 265.460938 298.210938 260.992188 Z M 302.367188 255.941406 C 302.925781 263.824219 297.839844 268.066406 293.359375 273.761719 C 292.03125 275.441406 290.757812 277.113281 289.472656 278.742188 C 289.335938 278.992188 289.203125 279.230469 289.085938 279.480469 C 294.53125 287.976562 307.382812 309.5625 292.574219 315.828125 C 277.070312 322.410156 267.792969 308.148438 259.839844 297.058594 C 259.804688 297.015625 259.796875 296.964844 259.761719 296.921875 C 253.660156 295.65625 248.109375 291.941406 243.289062 287.789062 C 233.121094 279.050781 225.207031 268.367188 214.914062 259.742188 C 203.269531 249.988281 193.945312 237.554688 182.914062 227.117188 C 177.441406 221.929688 171.464844 217.425781 165.597656 212.703125 C 160.40625 208.53125 156.425781 204.007812 151.890625 199.25 C 142.324219 189.214844 128.070312 184.15625 119.0625 173.304688 C 112.65625 165.621094 108.011719 156.453125 103.476562 147.378906 C 95.144531 153.675781 105.117188 162.8125 110.242188 167.300781 C 115.75 172.125 120.535156 177.710938 126.507812 181.984375 C 127.144531 182.441406 127.351562 183.113281 127.292969 183.742188 C 127.742188 184.457031 127.601562 185.328125 127.058594 185.992188 C 125.699219 187.679688 124 189.082031 122.921875 190.988281 C 122.59375 191.566406 122.09375 191.832031 121.585938 191.875 C 121.027344 192.496094 120.585938 193.203125 120.140625 193.945312 C 119.621094 194.8125 118.734375 194.96875 117.992188 194.703125 C 117.742188 194.667969 117.492188 194.582031 117.242188 194.417969 C 109.269531 189.300781 98.339844 184.320312 92.308594 176.769531 C 89.765625 173.574219 88.109375 170.539062 87.203125 166.535156 C 86.152344 161.949219 87.34375 157.683594 85.878906 153.144531 C 80.035156 152.28125 73.585938 144.054688 76.679688 138.789062 C 72.09375 131.84375 68.542969 124.148438 66.5625 116.066406 C 64.839844 109.027344 63.640625 101.605469 59.289062 95.636719 C 57.46875 93.152344 78.351562 78.722656 80.757812 76.695312 C 90.566406 68.492188 100.488281 60.394531 111.027344 53.121094 C 112.078125 52.398438 113.089844 52.984375 113.511719 53.886719 C 113.648438 54.050781 113.777344 54.242188 113.863281 54.480469 C 115.632812 59.179688 117.019531 64.027344 118.835938 68.714844 C 123.527344 71.699219 128.171875 74.714844 133.164062 77.1875 C 140.679688 76.875 148.117188 78.324219 154.746094 82.703125 C 167.769531 91.300781 179.480469 103.277344 189.878906 114.808594 C 197.625 123.398438 205.003906 132.308594 212.269531 141.328125 C 218.621094 149.238281 223.550781 157.355469 229.035156 165.851562 C 241.4375 185.035156 258.183594 201.457031 273.914062 217.882812 C 283.199219 227.59375 301.296875 241.121094 302.367188 255.941406 " fill-opacity="1" fill-rule="nonzero"/></g><path fill="#ba000e" d="M 123.878906 96.894531 C 127.207031 96.210938 128.964844 92.480469 127.992188 89.378906 C 126.972656 86.097656 123.179688 84.769531 120.050781 85.414062 C 119.890625 85.433594 119.726562 85.46875 119.535156 85.519531 C 115.882812 86.792969 113.632812 90.050781 115.484375 93.792969 C 116.914062 96.695312 121.027344 97.480469 123.878906 96.894531 Z M 241.84375 245.667969 C 241.972656 245.550781 240.289062 243.378906 237.128906 239.570312 C 233.957031 235.753906 229.363281 230.253906 223.605469 223.5 C 220.648438 220.171875 217.441406 216.484375 213.90625 212.640625 C 212.089844 210.78125 210.191406 208.84375 208.261719 206.859375 C 207.277344 205.878906 206.289062 204.871094 205.296875 203.84375 C 204.253906 202.757812 203.203125 201.855469 202.132812 200.820312 C 193.601562 192.789062 184.273438 183.90625 174.292969 174.738281 C 171.757812 172.480469 169.261719 170.246094 166.8125 168.023438 C 164.339844 165.84375 161.941406 163.621094 159.441406 161.640625 C 154.832031 157.855469 150.433594 154.195312 146.117188 150.730469 C 145.351562 148.023438 144.808594 144.992188 144.644531 141.726562 C 144.453125 139.074219 144.582031 136.261719 144.953125 133.375 C 145.308594 130.488281 146.046875 127.570312 147.101562 124.699219 L 147.496094 123.621094 C 147.574219 123.355469 147.789062 122.925781 147.9375 122.597656 C 148.261719 121.890625 148.566406 121.148438 148.917969 120.503906 C 149.273438 119.867188 149.625 119.246094 149.96875 118.625 C 150.347656 118.023438 150.796875 117.453125 151.195312 116.867188 C 152.910156 114.636719 155.039062 112.964844 157.355469 111.878906 C 157.953125 111.644531 158.539062 111.414062 159.132812 111.171875 C 159.726562 110.964844 160.347656 110.859375 160.941406 110.699219 C 162.105469 110.371094 163.390625 110.214844 164.546875 110.070312 C 166.914062 109.785156 169.128906 109.742188 171.121094 109.914062 C 175.121094 110.242188 178.144531 111.585938 179.878906 113.007812 C 181.628906 114.394531 182.316406 115.515625 182.5 115.402344 C 182.601562 115.34375 182.214844 114.023438 180.515625 112.28125 C 178.863281 110.507812 175.59375 108.734375 171.320312 108.15625 C 169.191406 107.863281 166.835938 107.800781 164.339844 108.007812 C 163.070312 108.128906 161.839844 108.234375 160.476562 108.550781 C 159.8125 108.714844 159.113281 108.808594 158.453125 109.027344 C 157.789062 109.277344 157.105469 109.515625 156.425781 109.765625 C 153.753906 110.9375 151.210938 112.867188 149.253906 115.367188 C 148.796875 116.003906 148.304688 116.644531 147.882812 117.324219 C 147.480469 118.023438 147.082031 118.726562 146.667969 119.433594 C 146.296875 120.140625 146.015625 120.839844 145.675781 121.546875 C 145.515625 121.933594 145.351562 122.199219 145.179688 122.691406 L 144.753906 123.828125 C 143.625 126.90625 142.867188 130.023438 142.539062 133.066406 C 142.167969 136.109375 142.082031 139.082031 142.351562 141.890625 C 142.523438 144.257812 142.910156 146.492188 143.429688 148.578125 C 142.308594 147.6875 141.195312 146.800781 140.117188 145.914062 C 139.671875 143.640625 139.332031 141.167969 139.203125 138.554688 C 138.9375 133.601562 139.394531 128.085938 141.195312 122.699219 C 142.988281 117.339844 146.152344 112.800781 149.9375 109.75 C 153.703125 106.734375 158.019531 105.011719 161.589844 104.433594 C 165.226562 103.917969 168.320312 104.398438 170.449219 104.578125 C 172.585938 104.804688 173.785156 104.847656 173.820312 104.683594 C 173.820312 104.492188 172.683594 104.132812 170.613281 103.613281 C 168.527344 103.140625 165.40625 102.363281 161.363281 102.683594 C 160.390625 102.804688 159.253906 102.96875 158.246094 103.234375 C 157.746094 103.382812 157.226562 103.511719 156.710938 103.667969 C 156.074219 103.871094 155.617188 104.0625 155.039062 104.285156 C 152.867188 105.140625 150.617188 106.335938 148.511719 107.949219 C 144.273438 111.171875 140.738281 116.144531 138.835938 121.90625 C 136.902344 127.671875 136.507812 133.523438 136.902344 138.683594 C 137.042969 140.46875 137.273438 142.191406 137.574219 143.8125 C 131.609375 138.804688 126.421875 133.917969 122.398438 129.144531 C 119.5625 125.8125 117.304688 122.535156 115.632812 119.511719 C 113.984375 116.460938 112.925781 113.652344 112.328125 111.292969 C 111.175781 106.542969 111.589844 103.753906 111.339844 103.753906 C 111.269531 103.753906 111.113281 104.414062 111.003906 105.734375 C 110.925781 107.042969 110.90625 109.027344 111.382812 111.5 C 111.855469 113.980469 112.820312 116.953125 114.398438 120.160156 C 116 123.355469 118.234375 126.785156 121.042969 130.273438 C 125.507812 135.859375 131.480469 141.554688 138.359375 147.335938 C 138.800781 149.050781 139.308594 150.644531 139.851562 152.109375 C 141.238281 155.773438 142.824219 158.519531 144.046875 160.328125 C 145.289062 162.148438 146.152344 162.957031 146.28125 162.878906 C 146.644531 162.648438 143.796875 158.761719 141.523438 151.53125 C 141.324219 150.894531 141.136719 150.1875 140.964844 149.488281 C 141.875 150.257812 142.808594 151.015625 143.773438 151.78125 C 144.039062 152.007812 144.332031 152.257812 144.609375 152.480469 C 145.101562 153.832031 145.632812 155.089844 146.210938 156.246094 C 148.132812 160.0625 150.304688 162.75 152.046875 164.386719 C 153.761719 166.007812 154.855469 166.679688 154.960938 166.578125 C 155.332031 166.222656 151.046875 162.992188 147.824219 155.503906 C 147.730469 155.332031 147.667969 155.140625 147.582031 154.960938 C 150.945312 157.734375 154.339844 160.578125 157.890625 163.519531 C 160.390625 165.515625 162.742188 167.730469 165.183594 169.921875 C 167.640625 172.109375 170.105469 174.339844 172.621094 176.589844 C 182.523438 185.785156 191.980469 194.539062 200.566406 202.5 C 201.617188 203.492188 202.769531 204.480469 203.703125 205.445312 C 204.710938 206.445312 205.710938 207.4375 206.703125 208.417969 C 208.675781 210.367188 210.597656 212.261719 212.441406 214.089844 C 215.976562 217.890625 219.277344 221.429688 222.292969 224.664062 C 228.207031 231.253906 233 236.578125 236.402344 240.199219 C 239.78125 243.835938 241.703125 245.789062 241.84375 245.667969 Z M 275.257812 281.152344 C 278.378906 278.664062 279.34375 274.425781 276.765625 271.261719 C 274.40625 268.367188 269.304688 267.667969 266.226562 269.648438 C 262.777344 271.882812 262.710938 276.921875 264.484375 280.25 C 264.535156 280.394531 264.613281 280.542969 264.71875 280.6875 C 264.820312 280.851562 264.941406 280.988281 265.070312 281.109375 C 267.925781 284.4375 271.976562 283.765625 275.257812 281.152344 Z M 285.671875 245.917969 C 285.851562 245.644531 285.878906 244.972656 285.816406 244.765625 C 285.757812 244.550781 285.6875 244.300781 285.609375 244.117188 L 285.238281 243.214844 L 284.859375 242.378906 C 284.664062 241.949219 284.558594 241.800781 284.414062 241.5 C 284.121094 240.980469 283.835938 240.457031 283.566406 239.949219 C 283.25 239.449219 282.886719 238.949219 282.566406 238.457031 C 281.230469 236.492188 279.863281 234.925781 278.570312 233.476562 C 276 230.625 273.84375 228.4375 272.378906 226.894531 C 270.914062 225.34375 270.085938 224.5 269.933594 224.601562 C 269.804688 224.695312 270.378906 225.757812 271.621094 227.515625 C 272.878906 229.261719 274.863281 231.640625 277.222656 234.613281 C 278.378906 236.089844 279.679688 237.742188 280.800781 239.550781 C 281.085938 240.007812 281.386719 240.464844 281.664062 240.921875 C 281.929688 241.449219 282.199219 241.972656 282.464844 242.507812 C 282.566406 242.738281 282.773438 243.109375 282.816406 243.25 L 283.171875 244.085938 L 283.480469 244.902344 C 283.5 244.929688 283.5 244.945312 283.5 244.972656 L 283.152344 245.300781 C 282.859375 245.566406 282.636719 245.816406 282.449219 246.058594 C 282.035156 246.539062 281.601562 247.046875 281.171875 247.53125 C 280.75 248.039062 280.300781 248.496094 279.828125 249.097656 C 279.34375 249.652344 278.878906 250.476562 278.644531 251.3125 C 278.265625 252.976562 278.371094 254.363281 278.308594 255.785156 C 278.265625 257.050781 278.113281 258.515625 277.613281 259.265625 C 277.371094 259.628906 277.136719 259.792969 276.648438 259.894531 C 276.179688 259.980469 275.542969 259.964844 274.886719 259.894531 C 273.585938 259.742188 272.171875 259.464844 270.828125 259.265625 C 269.613281 259.070312 268.234375 258.664062 266.828125 258.492188 C 265.460938 258.328125 263.785156 258.222656 262.261719 259.070312 C 261.390625 259.671875 261.046875 260.394531 260.734375 260.914062 C 260.46875 261.472656 260.054688 261.945312 260.210938 261.886719 C 260.148438 261.945312 260.113281 262.066406 260.070312 262.136719 L 260.046875 262.214844 L 260.027344 262.238281 L 260.011719 262.257812 C 260.070312 262.109375 259.898438 261.929688 260.132812 261.929688 L 260.054688 261.929688 L 259.734375 261.964844 L 259.425781 262.007812 L 259.082031 261.945312 C 258.640625 261.902344 258.183594 261.695312 257.71875 261.535156 C 255.898438 260.671875 254.324219 259.300781 252.960938 258.0625 C 250.230469 255.5 248.230469 253.148438 246.746094 251.597656 C 245.28125 250.03125 244.367188 249.246094 244.238281 249.367188 C 244.117188 249.488281 244.765625 250.476562 245.996094 252.21875 C 247.238281 253.949219 249.039062 256.492188 251.71875 259.320312 C 253.089844 260.707031 254.632812 262.230469 256.839844 263.394531 C 257.425781 263.644531 258.003906 263.929688 258.710938 264.050781 L 259.226562 264.152344 L 259.796875 264.152344 L 260.363281 264.117188 L 260.519531 264.117188 L 260.753906 264.050781 L 260.769531 264.050781 L 260.796875 264.03125 L 260.839844 263.996094 L 261.046875 263.929688 C 261.097656 263.910156 261.246094 263.824219 261.375 263.722656 C 261.511719 263.636719 261.625 263.515625 261.742188 263.410156 C 261.890625 263.273438 261.949219 263.1875 261.992188 263.117188 L 262.15625 262.894531 C 262.390625 262.566406 262.527344 262.300781 262.691406 262.03125 C 262.984375 261.507812 263.296875 261.101562 263.492188 261.015625 C 264.21875 260.671875 265.277344 260.664062 266.492188 260.851562 C 267.71875 261.035156 268.933594 261.402344 270.421875 261.679688 C 271.785156 261.902344 273.105469 262.179688 274.621094 262.359375 C 275.378906 262.4375 276.191406 262.507812 277.136719 262.335938 C 278.070312 262.179688 279.144531 261.535156 279.699219 260.644531 C 280.277344 259.777344 280.421875 258.929688 280.59375 258.128906 C 280.714844 257.335938 280.757812 256.597656 280.792969 255.8125 C 280.820312 254.390625 280.757812 252.960938 281.015625 251.925781 C 281.164062 251.453125 281.335938 251.054688 281.722656 250.582031 C 282.078125 250.125 282.550781 249.597656 282.980469 249.097656 C 283.394531 248.582031 283.816406 248.082031 284.242188 247.574219 C 284.445312 247.316406 284.652344 247.074219 284.816406 246.929688 L 285.152344 246.582031 L 285.34375 246.386719 C 285.464844 246.246094 285.585938 246.082031 285.671875 245.917969 Z M 298.460938 259.535156 C 298.402344 260.007812 298.332031 260.5 298.210938 260.992188 C 297.132812 265.460938 292.179688 269.324219 289.386719 272.871094 C 288.628906 273.839844 287.902344 274.777344 287.195312 275.707031 C 286.894531 275.855469 286.636719 276.121094 286.457031 276.527344 C 286.394531 276.636719 286.335938 276.757812 286.273438 276.878906 C 284.265625 279.40625 282.179688 281.738281 279.300781 283.660156 C 272.113281 288.441406 266.519531 286.859375 260.839844 281.207031 C 256.847656 277.234375 252.71875 273.371094 248.761719 269.367188 C 241.488281 262.023438 234.757812 254.175781 228.429688 246.023438 C 221.800781 237.511719 213.578125 230.566406 206.46875 222.507812 C 200.109375 215.320312 192.4375 211.003906 185.25 204.722656 C 177.664062 198.078125 171.285156 190.125 164.132812 183.050781 C 155.953125 174.960938 145.972656 169.03125 137.867188 160.855469 C 133.980469 156.925781 131.035156 151.972656 127.492188 147.714844 C 123.15625 142.527344 118.285156 137.769531 113.570312 132.9375 C 107.019531 125.613281 104.0625 115.296875 104.476562 105.597656 C 104.953125 94.144531 112.535156 85.035156 123.242188 82.253906 C 126.136719 81.503906 129.144531 80.996094 132.164062 80.804688 C 132.738281 81.054688 133.300781 80.988281 133.757812 80.726562 C 141.066406 80.539062 148.296875 82.289062 154.210938 86.941406 C 163.226562 94.066406 171.855469 101.417969 179.921875 109.601562 C 195.558594 125.484375 212.167969 143.664062 223.121094 163.097656 C 233.585938 181.65625 249.132812 196.875 263.578125 212.324219 C 270.707031 219.933594 278.085938 227.300781 285.316406 234.839844 C 288.402344 238.0625 292.195312 242.121094 294.929688 246.601562 C 294.015625 246.367188 292.980469 246.308594 291.851562 246.472656 C 287.574219 247.074219 286.601562 252.40625 287.945312 255.742188 C 289.160156 258.707031 292.179688 260.886719 295.445312 260.707031 C 296.6875 260.644531 297.675781 260.207031 298.460938 259.535156 " fill-opacity="1" fill-rule="nonzero"/><path fill="#e6e6e6" d="M 295.253906 253.933594 C 295.730469 253.417969 295.980469 252.691406 295.636719 252.234375 C 295.359375 251.867188 294.84375 251.726562 294.265625 251.882812 C 293.917969 251.71875 293.539062 251.683594 293.230469 251.867188 C 292.800781 252.097656 292.609375 252.625 292.679688 253.183594 C 292.574219 253.390625 292.515625 253.578125 292.558594 253.726562 C 292.59375 254.132812 292.757812 254.449219 293.050781 254.632812 C 293.273438 254.804688 293.566406 254.796875 293.859375 254.699219 C 294.117188 254.777344 294.367188 254.804688 294.617188 254.71875 C 294.945312 254.613281 295.167969 254.320312 295.253906 253.933594 Z M 296.832031 253.804688 C 296.9375 254.957031 296.980469 256.828125 295.445312 257.007812 C 294.058594 257.191406 292.652344 256.371094 291.851562 255.269531 C 290.859375 253.890625 290.480469 251.289062 292.117188 250.253906 C 294.53125 248.761719 296.566406 251.820312 296.832031 253.804688 " fill-opacity="1" fill-rule="nonzero"/><path fill="#000000" d="M 295.636719 252.234375 C 295.980469 252.691406 295.730469 253.417969 295.253906 253.933594 C 295.167969 254.320312 294.945312 254.613281 294.617188 254.71875 C 294.367188 254.804688 294.117188 254.777344 293.859375 254.699219 C 293.566406 254.796875 293.273438 254.804688 293.050781 254.632812 C 292.757812 254.449219 292.59375 254.132812 292.558594 253.726562 C 292.515625 253.578125 292.574219 253.390625 292.679688 253.183594 C 292.609375 252.625 292.800781 252.097656 293.230469 251.867188 C 293.539062 251.683594 293.917969 251.71875 294.265625 251.882812 C 294.84375 251.726562 295.359375 251.867188 295.636719 252.234375 " fill-opacity="1" fill-rule="nonzero"/><path fill="#333333" d="M 286.871094 282.851562 C 291.867188 290.554688 299.953125 303.667969 292.964844 311.15625 C 287.308594 317.207031 278.570312 313.183594 273.691406 308.734375 C 270.113281 305.46875 267.347656 301.359375 264.570312 297.386719 C 265.734375 297.351562 266.914062 297.230469 268.113281 297 C 269.878906 296.644531 271.535156 295.800781 273.105469 294.785156 C 272.171875 297.972656 272.570312 301.757812 274.09375 304.417969 C 276.5625 308.753906 284.179688 309.3125 288.050781 306.933594 C 289.179688 306.238281 289.945312 305.367188 290.464844 304.375 C 290.117188 305.46875 289.617188 306.460938 288.972656 307.253906 C 288.042969 308.527344 286.707031 309.183594 285.628906 309.769531 C 285.015625 309.992188 284.492188 310.183594 284 310.363281 C 283.523438 310.535156 283.066406 310.578125 282.714844 310.699219 C 282 310.90625 281.59375 311.105469 281.578125 311.269531 C 281.578125 311.441406 282 311.570312 282.792969 311.664062 C 283.1875 311.691406 283.6875 311.792969 284.25 311.734375 C 284.816406 311.664062 285.464844 311.585938 286.1875 311.441406 C 287.566406 311 289.335938 310.347656 290.695312 308.777344 C 292.09375 307.3125 293.082031 305.1875 293.332031 302.894531 C 293.625 300.609375 293.167969 298.449219 292.488281 296.65625 C 291.851562 294.828125 290.835938 293.40625 289.945312 292.296875 C 288.953125 291.21875 288.066406 290.417969 287.402344 290.082031 C 286.738281 289.683594 286.316406 289.519531 286.207031 289.648438 C 286.085938 289.789062 286.292969 290.183594 286.75 290.804688 C 286.972656 291.054688 287.195312 291.363281 287.429688 291.691406 C 285.628906 289.976562 283.359375 288.734375 281.042969 288.589844 C 283.171875 286.839844 285.179688 284.980469 286.871094 282.851562 " fill-opacity="1" fill-rule="nonzero"/><path fill="#000000" d="M 285.816406 244.765625 C 285.878906 244.972656 285.851562 245.644531 285.671875 245.917969 C 285.585938 246.082031 285.464844 246.246094 285.34375 246.386719 L 285.152344 246.582031 L 284.816406 246.929688 C 284.652344 247.074219 284.445312 247.316406 284.242188 247.574219 C 283.816406 248.082031 283.394531 248.582031 282.980469 249.097656 C 282.550781 249.597656 282.078125 250.125 281.722656 250.582031 C 281.335938 251.054688 281.164062 251.453125 281.015625 251.925781 C 280.757812 252.960938 280.820312 254.390625 280.792969 255.8125 C 280.757812 256.597656 280.714844 257.335938 280.59375 258.128906 C 280.421875 258.929688 280.277344 259.777344 279.699219 260.644531 C 279.144531 261.535156 278.070312 262.179688 277.136719 262.335938 C 276.191406 262.507812 275.378906 262.4375 274.621094 262.359375 C 273.105469 262.179688 271.785156 261.902344 270.421875 261.679688 C 268.933594 261.402344 267.71875 261.035156 266.492188 260.851562 C 265.277344 260.664062 264.21875 260.671875 263.492188 261.015625 C 263.296875 261.101562 262.984375 261.507812 262.691406 262.03125 C 262.527344 262.300781 262.390625 262.566406 262.15625 262.894531 L 261.992188 263.117188 C 261.949219 263.1875 261.890625 263.273438 261.742188 263.410156 C 261.625 263.515625 261.511719 263.636719 261.375 263.722656 C 261.246094 263.824219 261.097656 263.910156 261.046875 263.929688 L 260.839844 263.996094 L 260.796875 264.03125 L 260.769531 264.050781 L 260.753906 264.050781 L 260.519531 264.117188 L 260.363281 264.117188 L 259.796875 264.152344 L 259.226562 264.152344 L 258.710938 264.050781 C 258.003906 263.929688 257.425781 263.644531 256.839844 263.394531 C 254.632812 262.230469 253.089844 260.707031 251.71875 259.320312 C 249.039062 256.492188 247.238281 253.949219 245.996094 252.21875 C 244.765625 250.476562 244.117188 249.488281 244.238281 249.367188 C 244.367188 249.246094 245.28125 250.03125 246.746094 251.597656 C 248.230469 253.148438 250.230469 255.5 252.960938 258.0625 C 254.324219 259.300781 255.898438 260.671875 257.71875 261.535156 C 258.183594 261.695312 258.640625 261.902344 259.082031 261.945312 L 259.425781 262.007812 L 259.734375 261.964844 L 260.054688 261.929688 L 260.132812 261.929688 C 259.898438 261.929688 260.070312 262.109375 260.011719 262.257812 L 260.027344 262.238281 L 260.046875 262.214844 L 260.070312 262.136719 C 260.113281 262.066406 260.148438 261.945312 260.210938 261.886719 C 260.054688 261.945312 260.46875 261.472656 260.734375 260.914062 C 261.046875 260.394531 261.390625 259.671875 262.261719 259.070312 C 263.785156 258.222656 265.460938 258.328125 266.828125 258.492188 C 268.234375 258.664062 269.613281 259.070312 270.828125 259.265625 C 272.171875 259.464844 273.585938 259.742188 274.886719 259.894531 C 275.542969 259.964844 276.179688 259.980469 276.648438 259.894531 C 277.136719 259.792969 277.371094 259.628906 277.613281 259.265625 C 278.113281 258.515625 278.265625 257.050781 278.308594 255.785156 C 278.371094 254.363281 278.265625 252.976562 278.644531 251.3125 C 278.878906 250.476562 279.34375 249.652344 279.828125 249.097656 C 280.300781 248.496094 280.75 248.039062 281.171875 247.53125 C 281.601562 247.046875 282.035156 246.539062 282.449219 246.058594 C 282.636719 245.816406 282.859375 245.566406 283.152344 245.300781 L 283.5 244.972656 C 283.5 244.945312 283.5 244.929688 283.480469 244.902344 L 283.171875 244.085938 L 282.816406 243.25 C 282.773438 243.109375 282.566406 242.738281 282.464844 242.507812 C 282.199219 241.972656 281.929688 241.449219 281.664062 240.921875 C 281.386719 240.464844 281.085938 240.007812 280.800781 239.550781 C 279.679688 237.742188 278.378906 236.089844 277.222656 234.613281 C 274.863281 231.640625 272.878906 229.261719 271.621094 227.515625 C 270.378906 225.757812 269.804688 224.695312 269.933594 224.601562 C 270.085938 224.5 270.914062 225.34375 272.378906 226.894531 C 273.84375 228.4375 276 230.625 278.570312 233.476562 C 279.863281 234.925781 281.230469 236.492188 282.566406 238.457031 C 282.886719 238.949219 283.25 239.449219 283.566406 239.949219 C 283.835938 240.457031 284.121094 240.980469 284.414062 241.5 C 284.558594 241.800781 284.664062 241.949219 284.859375 242.378906 L 285.238281 243.214844 L 285.609375 244.117188 C 285.6875 244.300781 285.757812 244.550781 285.816406 244.765625 " fill-opacity="1" fill-rule="nonzero"/><path fill="#000000" d="M 267.90625 278.828125 C 270.457031 282.195312 277.472656 275.648438 273.320312 273.183594 C 271.964844 272.363281 269.433594 271.496094 268.105469 272.855469 C 266.519531 274.449219 266.8125 277.042969 267.90625 278.828125 Z M 276.765625 271.261719 C 279.34375 274.425781 278.378906 278.664062 275.257812 281.152344 C 271.976562 283.765625 267.925781 284.4375 265.070312 281.109375 C 264.941406 280.988281 264.820312 280.851562 264.71875 280.6875 C 264.613281 280.542969 264.535156 280.394531 264.484375 280.25 C 262.710938 276.921875 262.777344 271.882812 266.226562 269.648438 C 269.304688 267.667969 274.40625 268.367188 276.765625 271.261719 " fill-opacity="1" fill-rule="nonzero"/><path fill="#e6e6e6" d="M 272.277344 276.070312 C 272.535156 275.5625 272.585938 275.042969 272.347656 274.691406 C 272.070312 274.285156 271.433594 274.285156 270.75 274.605469 C 269.742188 274.085938 268.992188 274.320312 268.742188 274.777344 C 268.519531 275.148438 268.804688 275.691406 269.183594 276.199219 C 268.976562 276.742188 268.992188 277.265625 269.285156 277.542969 C 269.597656 277.835938 270.113281 277.808594 270.648438 277.570312 C 271.226562 277.941406 271.785156 278.121094 272.242188 277.914062 C 272.699219 277.722656 272.734375 276.90625 272.277344 276.070312 Z M 273.320312 273.183594 C 277.472656 275.648438 270.457031 282.195312 267.90625 278.828125 C 266.8125 277.042969 266.519531 274.449219 268.105469 272.855469 C 269.433594 271.496094 271.964844 272.363281 273.320312 273.183594 " fill-opacity="1" fill-rule="nonzero"/><path fill="#000000" d="M 272.347656 274.691406 C 272.585938 275.042969 272.535156 275.5625 272.277344 276.070312 C 272.734375 276.90625 272.699219 277.722656 272.242188 277.914062 C 271.785156 278.121094 271.226562 277.941406 270.648438 277.570312 C 270.113281 277.808594 269.597656 277.835938 269.285156 277.542969 C 268.992188 277.265625 268.976562 276.742188 269.183594 276.199219 C 268.804688 275.691406 268.519531 275.148438 268.742188 274.777344 C 268.992188 274.320312 269.742188 274.085938 270.75 274.605469 C 271.433594 274.285156 272.070312 274.285156 272.347656 274.691406 " fill-opacity="1" fill-rule="nonzero"/><path fill="#4d4d4d" d="M 167.535156 202.800781 C 167.578125 202.722656 167.382812 202.492188 166.957031 202.121094 C 166.570312 201.722656 165.828125 201.25 165.140625 200.492188 C 163.597656 199.121094 161.613281 196.769531 159.269531 193.796875 C 158.070312 192.304688 156.769531 190.644531 155.183594 188.980469 C 154.753906 188.566406 154.398438 188.160156 153.917969 187.6875 C 153.488281 187.308594 153.039062 186.921875 152.597656 186.523438 C 151.695312 185.742188 150.824219 184.894531 149.753906 184.128906 C 147.730469 182.5 145.53125 180.96875 143.195312 179.457031 C 142.039062 178.742188 140.859375 178.011719 139.660156 177.253906 C 138.472656 176.484375 137.265625 175.703125 136.050781 174.902344 C 126.621094 168.488281 120.097656 160.089844 116.46875 153.539062 C 115.597656 151.867188 114.828125 150.351562 114.132812 149.015625 C 113.777344 148.371094 113.484375 147.730469 113.253906 147.128906 C 112.992188 146.535156 112.761719 146 112.554688 145.519531 C 111.691406 143.5625 111.132812 142.511719 110.96875 142.5625 C 110.804688 142.605469 111.046875 143.769531 111.632812 145.835938 C 111.785156 146.351562 111.960938 146.929688 112.140625 147.570312 C 112.3125 148.1875 112.554688 148.871094 112.863281 149.566406 C 113.449219 150.980469 114.089844 152.609375 114.90625 154.367188 C 118.234375 161.320312 124.785156 170.265625 134.6875 176.984375 C 135.902344 177.789062 137.117188 178.570312 138.308594 179.339844 C 139.582031 180.148438 140.714844 180.804688 141.894531 181.527344 C 144.195312 182.972656 146.359375 184.421875 148.304688 185.902344 C 149.316406 186.59375 150.246094 187.4375 151.175781 188.195312 C 151.632812 188.574219 152.082031 188.945312 152.539062 189.316406 C 152.925781 189.703125 153.324219 190.074219 153.703125 190.445312 C 155.269531 191.953125 156.632812 193.511719 157.925781 194.933594 C 160.476562 197.785156 162.683594 200.019531 164.546875 201.257812 C 165.414062 201.957031 166.191406 202.25 166.675781 202.535156 C 167.191406 202.765625 167.484375 202.871094 167.535156 202.800781 Z M 231.664062 262.300781 C 231.828125 262.230469 231.609375 261.515625 231.035156 260.273438 C 230.421875 259.078125 229.300781 257.464844 227.714844 255.664062 C 226.136719 253.890625 224.078125 251.925781 221.941406 249.78125 C 220.890625 248.761719 219.75 247.480469 218.707031 246.28125 C 217.605469 244.988281 216.449219 243.664062 215.269531 242.285156 C 214.097656 240.914062 212.875 239.636719 211.691406 238.441406 C 210.496094 237.226562 209.355469 236.0625 208.261719 234.949219 C 205.996094 232.804688 203.953125 230.882812 202.210938 229.324219 C 198.703125 226.1875 196.425781 224.351562 196.175781 224.601562 C 195.9375 224.859375 197.789062 227.117188 200.96875 230.574219 C 202.546875 232.304688 204.460938 234.332031 206.617188 236.5625 C 207.667969 237.699219 208.761719 238.886719 209.917969 240.113281 C 211.0625 241.335938 212.269531 242.59375 213.40625 243.957031 C 214.589844 245.289062 215.726562 246.582031 216.839844 247.839844 C 218.035156 249.175781 219.097656 250.296875 220.3125 251.410156 C 222.648438 253.5625 224.742188 255.328125 226.449219 256.90625 C 228.128906 258.472656 229.386719 259.835938 230.230469 260.828125 C 231 261.828125 231.515625 262.378906 231.664062 262.300781 Z M 269.863281 290.519531 C 268.414062 290.761719 266.828125 290.761719 265.15625 290.355469 C 262.011719 289.683594 258.605469 288.304688 255.269531 286.488281 C 254.445312 285.996094 253.597656 285.558594 252.832031 285.066406 C 252.074219 284.566406 251.332031 284.066406 250.597656 283.574219 C 249.867188 283.039062 249.160156 282.4375 248.460938 281.902344 L 247.816406 281.386719 L 247.753906 281.324219 L 247.53125 281.109375 C 247.222656 280.808594 246.945312 280.53125 246.644531 280.25 C 244.351562 277.929688 242.59375 275.414062 240.910156 273.449219 C 240.09375 272.425781 239.257812 271.589844 238.542969 270.832031 C 237.75 270.125 237.066406 269.503906 236.472656 269.074219 C 235.273438 268.273438 234.550781 267.890625 234.445312 268.039062 C 234.34375 268.167969 234.84375 268.789062 235.871094 269.824219 C 236.34375 270.355469 236.859375 271.019531 237.507812 271.761719 C 238.085938 272.578125 238.792969 273.449219 239.507812 274.511719 C 240.980469 276.585938 242.59375 279.214844 244.980469 281.835938 C 245.28125 282.152344 245.601562 282.480469 245.910156 282.808594 L 246.144531 283.058594 L 246.203125 283.117188 L 246.324219 283.222656 L 246.453125 283.324219 L 246.953125 283.753906 C 247.652344 284.316406 248.316406 284.902344 249.074219 285.480469 C 249.859375 286.03125 250.667969 286.589844 251.480469 287.152344 C 252.324219 287.703125 253.195312 288.160156 254.074219 288.675781 C 257.605469 290.582031 261.199219 292.003906 264.734375 292.621094 C 265.734375 292.804688 266.742188 292.871094 267.734375 292.847656 C 265.339844 293.578125 262.941406 293.863281 260.710938 293.492188 C 250.597656 291.8125 241.652344 281.859375 235.109375 274.664062 C 231.722656 270.925781 228.65625 266.945312 225.027344 263.429688 C 220.898438 259.449219 216.15625 256.183594 212.011719 252.21875 C 202.832031 243.414062 194.503906 233.539062 185.53125 224.5 C 184.730469 223.707031 183.902344 222.921875 183.078125 222.15625 C 184.585938 220.949219 186.050781 219.757812 187.394531 218.335938 C 188.117188 217.570312 188.042969 216.484375 187.359375 215.71875 C 184.230469 212.203125 181.257812 208.636719 177.691406 205.566406 C 176.851562 204.828125 175.84375 205.035156 175.207031 205.59375 C 175.179688 205.609375 175.128906 205.621094 175.105469 205.636719 C 172.769531 206.921875 170.699219 208.550781 169.085938 210.667969 C 166.175781 208.367188 163.269531 206.066406 160.519531 203.628906 C 156.976562 200.476562 154.789062 196.148438 150.925781 193.304688 C 146.480469 190.023438 141.773438 187.109375 137.335938 183.800781 C 131.394531 179.363281 125.050781 175.269531 120.613281 169.238281 C 117.078125 164.449219 114.105469 159.140625 111.21875 153.96875 C 108.132812 148.457031 105.339844 142.761719 102.410156 137.140625 C 101.152344 134.738281 99.847656 132.359375 98.523438 129.972656 C 95.773438 125.070312 97.203125 122.183594 99.847656 118.832031 C 99.640625 121.003906 99.683594 123.726562 100.347656 126.636719 C 101.238281 130.238281 103.03125 133.167969 104.683594 135.023438 C 106.339844 136.660156 107.582031 137.402344 107.839844 137.195312 C 108.113281 136.953125 107.269531 135.730469 106.011719 133.851562 C 104.933594 131.988281 103.582031 129.308594 102.78125 126.0625 C 102.117188 123.070312 101.910156 120.277344 101.8125 118.109375 C 103.519531 124.65625 106.8125 130.902344 110.960938 135.546875 C 118.511719 143.292969 125.679688 151.015625 132.085938 159.761719 C 137.53125 167.199219 145.695312 172.523438 152.875 178.125 C 167.8125 189.773438 178.25 206.085938 194.503906 216.191406 C 202.582031 221.214844 209.113281 230.652344 215.796875 237.390625 C 223.605469 245.257812 230.042969 254.277344 237.359375 262.585938 C 243.9375 270.046875 251.261719 276.734375 258.234375 283.824219 C 262.027344 287.683594 265.5625 290.226562 269.863281 290.519531 " fill-opacity="1" fill-rule="nonzero"/><path fill="#000000" d="M 237.128906 239.570312 C 240.289062 243.378906 241.972656 245.550781 241.84375 245.667969 C 241.703125 245.789062 239.78125 243.835938 236.402344 240.199219 C 233 236.578125 228.207031 231.253906 222.292969 224.664062 C 219.277344 221.429688 215.976562 217.890625 212.441406 214.089844 C 210.597656 212.261719 208.675781 210.367188 206.703125 208.417969 C 205.710938 207.4375 204.710938 206.445312 203.703125 205.445312 C 202.769531 204.480469 201.617188 203.492188 200.566406 202.5 C 191.980469 194.539062 182.523438 185.785156 172.621094 176.589844 C 170.105469 174.339844 167.640625 172.109375 165.183594 169.921875 C 162.742188 167.730469 160.390625 165.515625 157.890625 163.519531 C 154.339844 160.578125 150.945312 157.734375 147.582031 154.960938 C 147.667969 155.140625 147.730469 155.332031 147.824219 155.503906 C 151.046875 162.992188 155.332031 166.222656 154.960938 166.578125 C 154.855469 166.679688 153.761719 166.007812 152.046875 164.386719 C 150.304688 162.75 148.132812 160.0625 146.210938 156.246094 C 145.632812 155.089844 145.101562 153.832031 144.609375 152.480469 C 144.332031 152.257812 144.039062 152.007812 143.773438 151.78125 C 142.808594 151.015625 141.875 150.257812 140.964844 149.488281 C 141.136719 150.1875 141.324219 150.894531 141.523438 151.53125 C 143.796875 158.761719 146.644531 162.648438 146.28125 162.878906 C 146.152344 162.957031 145.289062 162.148438 144.046875 160.328125 C 142.824219 158.519531 141.238281 155.773438 139.851562 152.109375 C 139.308594 150.644531 138.800781 149.050781 138.359375 147.335938 C 131.480469 141.554688 125.507812 135.859375 121.042969 130.273438 C 118.234375 126.785156 116 123.355469 114.398438 120.160156 C 112.820312 116.953125 111.855469 113.980469 111.382812 111.5 C 110.90625 109.027344 110.925781 107.042969 111.003906 105.734375 C 111.113281 104.414062 111.269531 103.753906 111.339844 103.753906 C 111.589844 103.753906 111.175781 106.542969 112.328125 111.292969 C 112.925781 113.652344 113.984375 116.460938 115.632812 119.511719 C 117.304688 122.535156 119.5625 125.8125 122.398438 129.144531 C 126.421875 133.917969 131.609375 138.804688 137.574219 143.8125 C 137.273438 142.191406 137.042969 140.46875 136.902344 138.683594 C 136.507812 133.523438 136.902344 127.671875 138.835938 121.90625 C 140.738281 116.144531 144.273438 111.171875 148.511719 107.949219 C 150.617188 106.335938 152.867188 105.140625 155.039062 104.285156 C 155.617188 104.0625 156.074219 103.871094 156.710938 103.667969 C 157.226562 103.511719 157.746094 103.382812 158.246094 103.234375 C 159.253906 102.96875 160.390625 102.804688 161.363281 102.683594 C 165.40625 102.363281 168.527344 103.140625 170.613281 103.613281 C 172.683594 104.132812 173.820312 104.492188 173.820312 104.683594 C 173.785156 104.847656 172.585938 104.804688 170.449219 104.578125 C 168.320312 104.398438 165.226562 103.917969 161.589844 104.433594 C 158.019531 105.011719 153.703125 106.734375 149.9375 109.75 C 146.152344 112.800781 142.988281 117.339844 141.195312 122.699219 C 139.394531 128.085938 138.9375 133.601562 139.203125 138.554688 C 139.332031 141.167969 139.671875 143.640625 140.117188 145.914062 C 141.195312 146.800781 142.308594 147.6875 143.429688 148.578125 C 142.910156 146.492188 142.523438 144.257812 142.351562 141.890625 C 142.082031 139.082031 142.167969 136.109375 142.539062 133.066406 C 142.867188 130.023438 143.625 126.90625 144.753906 123.828125 L 145.179688 122.691406 C 145.351562 122.199219 145.515625 121.933594 145.675781 121.546875 C 146.015625 120.839844 146.296875 120.140625 146.667969 119.433594 C 147.082031 118.726562 147.480469 118.023438 147.882812 117.324219 C 148.304688 116.644531 148.796875 116.003906 149.253906 115.367188 C 151.210938 112.867188 153.753906 110.9375 156.425781 109.765625 C 157.105469 109.515625 157.789062 109.277344 158.453125 109.027344 C 159.113281 108.808594 159.8125 108.714844 160.476562 108.550781 C 161.839844 108.234375 163.070312 108.128906 164.339844 108.007812 C 166.835938 107.800781 169.191406 107.863281 171.320312 108.15625 C 175.59375 108.734375 178.863281 110.507812 180.515625 112.28125 C 182.214844 114.023438 182.601562 115.34375 182.5 115.402344 C 182.316406 115.515625 181.628906 114.394531 179.878906 113.007812 C 178.144531 111.585938 175.121094 110.242188 171.121094 109.914062 C 169.128906 109.742188 166.914062 109.785156 164.546875 110.070312 C 163.390625 110.214844 162.105469 110.371094 160.941406 110.699219 C 160.347656 110.859375 159.726562 110.964844 159.132812 111.171875 C 158.539062 111.414062 157.953125 111.644531 157.355469 111.878906 C 155.039062 112.964844 152.910156 114.636719 151.195312 116.867188 C 150.796875 117.453125 150.347656 118.023438 149.96875 118.625 C 149.625 119.246094 149.273438 119.867188 148.917969 120.503906 C 148.566406 121.148438 148.261719 121.890625 147.9375 122.597656 C 147.789062 122.925781 147.574219 123.355469 147.496094 123.621094 L 147.101562 124.699219 C 146.046875 127.570312 145.308594 130.488281 144.953125 133.375 C 144.582031 136.261719 144.453125 139.074219 144.644531 141.726562 C 144.808594 144.992188 145.351562 148.023438 146.117188 150.730469 C 150.433594 154.195312 154.832031 157.855469 159.441406 161.640625 C 161.941406 163.621094 164.339844 165.84375 166.8125 168.023438 C 169.261719 170.246094 171.757812 172.480469 174.292969 174.738281 C 184.273438 183.90625 193.601562 192.789062 202.132812 200.820312 C 203.203125 201.855469 204.253906 202.757812 205.296875 203.84375 C 206.289062 204.871094 207.277344 205.878906 208.261719 206.859375 C 210.191406 208.84375 212.089844 210.78125 213.90625 212.640625 C 217.441406 216.484375 220.648438 220.171875 223.605469 223.5 C 229.363281 230.253906 233.957031 235.753906 237.128906 239.570312 " fill-opacity="1" fill-rule="nonzero"/><path fill="#000000" d="M 231.035156 260.273438 C 231.609375 261.515625 231.828125 262.230469 231.664062 262.300781 C 231.515625 262.378906 231 261.828125 230.230469 260.828125 C 229.386719 259.835938 228.128906 258.472656 226.449219 256.90625 C 224.742188 255.328125 222.648438 253.5625 220.3125 251.410156 C 219.097656 250.296875 218.035156 249.175781 216.839844 247.839844 C 215.726562 246.582031 214.589844 245.289062 213.40625 243.957031 C 212.269531 242.59375 211.0625 241.335938 209.917969 240.113281 C 208.761719 238.886719 207.667969 237.699219 206.617188 236.5625 C 204.460938 234.332031 202.546875 232.304688 200.96875 230.574219 C 197.789062 227.117188 195.9375 224.859375 196.175781 224.601562 C 196.425781 224.351562 198.703125 226.1875 202.210938 229.324219 C 203.953125 230.882812 205.996094 232.804688 208.261719 234.949219 C 209.355469 236.0625 210.496094 237.226562 211.691406 238.441406 C 212.875 239.636719 214.097656 240.914062 215.269531 242.285156 C 216.449219 243.664062 217.605469 244.988281 218.707031 246.28125 C 219.75 247.480469 220.890625 248.761719 221.941406 249.78125 C 224.078125 251.925781 226.136719 253.890625 227.714844 255.664062 C 229.300781 257.464844 230.421875 259.078125 231.035156 260.273438 " fill-opacity="1" fill-rule="nonzero"/><path fill="#333333" d="M 184.035156 216.933594 C 182.894531 217.925781 181.578125 218.828125 180.371094 219.742188 C 177.644531 217.390625 174.820312 215.140625 171.984375 212.925781 C 173.15625 211.375 174.664062 210.195312 176.34375 209.203125 C 179.050781 211.609375 181.6875 214.253906 184.035156 216.933594 " fill-opacity="1" fill-rule="nonzero"/><path fill="#000000" d="M 166.957031 202.121094 C 167.382812 202.492188 167.578125 202.722656 167.535156 202.800781 C 167.484375 202.871094 167.191406 202.765625 166.675781 202.535156 C 166.191406 202.25 165.414062 201.957031 164.546875 201.257812 C 162.683594 200.019531 160.476562 197.785156 157.925781 194.933594 C 156.632812 193.511719 155.269531 191.953125 153.703125 190.445312 C 153.324219 190.074219 152.925781 189.703125 152.539062 189.316406 C 152.082031 188.945312 151.632812 188.574219 151.175781 188.195312 C 150.246094 187.4375 149.316406 186.59375 148.304688 185.902344 C 146.359375 184.421875 144.195312 182.972656 141.894531 181.527344 C 140.714844 180.804688 139.582031 180.148438 138.308594 179.339844 C 137.117188 178.570312 135.902344 177.789062 134.6875 176.984375 C 124.785156 170.265625 118.234375 161.320312 114.90625 154.367188 C 114.089844 152.609375 113.449219 150.980469 112.863281 149.566406 C 112.554688 148.871094 112.3125 148.1875 112.140625 147.570312 C 111.960938 146.929688 111.785156 146.351562 111.632812 145.835938 C 111.046875 143.769531 110.804688 142.605469 110.96875 142.5625 C 111.132812 142.511719 111.691406 143.5625 112.554688 145.519531 C 112.761719 146 112.992188 146.535156 113.253906 147.128906 C 113.484375 147.730469 113.777344 148.371094 114.132812 149.015625 C 114.828125 150.351562 115.597656 151.867188 116.46875 153.539062 C 120.097656 160.089844 126.621094 168.488281 136.050781 174.902344 C 137.265625 175.703125 138.472656 176.484375 139.660156 177.253906 C 140.859375 178.011719 142.039062 178.742188 143.195312 179.457031 C 145.53125 180.96875 147.730469 182.5 149.753906 184.128906 C 150.824219 184.894531 151.695312 185.742188 152.597656 186.523438 C 153.039062 186.921875 153.488281 187.308594 153.917969 187.6875 C 154.398438 188.160156 154.753906 188.566406 155.183594 188.980469 C 156.769531 190.644531 158.070312 192.304688 159.269531 193.796875 C 161.613281 196.769531 163.597656 199.121094 165.140625 200.492188 C 165.828125 201.25 166.570312 201.722656 166.957031 202.121094 " fill-opacity="1" fill-rule="nonzero"/><path fill="#000000" d="M 122.90625 93.324219 C 124.234375 92.964844 125.179688 91.386719 124.265625 90.101562 C 123.421875 88.90625 121.835938 88.699219 120.527344 89.085938 C 119.148438 89.5625 117.347656 91.320312 119.207031 92.535156 C 120.242188 93.222656 121.648438 93.679688 122.90625 93.324219 Z M 127.992188 89.378906 C 128.964844 92.480469 127.207031 96.210938 123.878906 96.894531 C 121.027344 97.480469 116.914062 96.695312 115.484375 93.792969 C 113.632812 90.050781 115.882812 86.792969 119.535156 85.519531 C 119.726562 85.46875 119.890625 85.433594 120.050781 85.414062 C 123.179688 84.769531 126.972656 86.097656 127.992188 89.378906 " fill-opacity="1" fill-rule="nonzero"/><path fill="#e6e6e6" d="M 124.265625 90.101562 C 125.179688 91.386719 124.234375 92.964844 122.90625 93.324219 C 121.648438 93.679688 120.242188 93.222656 119.207031 92.535156 C 117.347656 91.320312 119.148438 89.5625 120.527344 89.085938 C 121.835938 88.699219 123.421875 88.90625 124.265625 90.101562 " fill-opacity="1" fill-rule="nonzero"/><path fill="#333333" d="M 122.0625 76.386719 C 123.242188 76.859375 124.335938 77.480469 125.449219 78.074219 C 122.964844 78.53125 120.492188 79.132812 118.070312 79.859375 C 108.054688 82.8125 102.847656 93.679688 101.046875 103.261719 C 100.546875 105.96875 100.460938 108.808594 100.710938 111.664062 C 96.746094 110.242188 92.988281 108.320312 89.125 106.621094 C 93.359375 93.03125 109.519531 81.152344 122.0625 76.386719 " fill-opacity="1" fill-rule="nonzero"/><path fill="#666666" d="M 123.605469 184.363281 C 122.699219 185.351562 121.777344 186.316406 120.949219 187.367188 C 116.191406 182.929688 110.925781 179.105469 105.960938 174.902344 C 99.761719 169.652344 97.144531 164.714844 96.394531 156.796875 C 95.710938 149.550781 95.101562 142.339844 89.480469 138.125 C 91.453125 136.53125 93.753906 135.316406 96.003906 134.179688 C 96.167969 134.082031 96.296875 133.996094 96.417969 133.894531 C 96.917969 134.796875 97.453125 135.695312 97.960938 136.617188 C 99.273438 139.054688 100.546875 141.554688 101.804688 144.070312 C 95.609375 148.578125 95.839844 156.410156 100.117188 162.585938 C 102.996094 166.785156 107.660156 169.835938 111.339844 173.28125 C 115.390625 177.070312 119.183594 181.011719 123.605469 184.363281 " fill-opacity="1" fill-rule="nonzero"/><path fill="#4d4d4d" d="M 115.984375 71.285156 C 117.140625 72.007812 118.285156 72.75 119.441406 73.472656 C 106.167969 78.960938 90.550781 90.765625 85.816406 104.8125 C 83.464844 103.769531 80.9375 102.992188 78.394531 102.71875 C 83.023438 97.332031 88.953125 92.722656 94.023438 87.890625 C 100.660156 81.53125 107.882812 75.660156 115.984375 71.285156 " fill-opacity="1" fill-rule="nonzero"/><path fill="#333333" d="M 118.378906 189.996094 C 118.242188 190.160156 118.085938 190.324219 117.96875 190.496094 C 111.210938 186.222656 103.976562 182.121094 97.839844 177.046875 C 93.667969 173.617188 91.039062 169.109375 90.679688 163.664062 C 90.402344 159.511719 90.800781 156.289062 89.582031 152.488281 C 90.410156 152.015625 91.152344 151.246094 91.789062 150.195312 C 91.875 150.085938 91.980469 149.945312 92.039062 149.773438 C 92.074219 149.738281 92.074219 149.714844 92.082031 149.679688 C 93.195312 155.152344 92.886719 161.585938 94.332031 166.222656 C 97.496094 176.484375 110.511719 182.972656 118.378906 189.996094 " fill-opacity="1" fill-rule="nonzero"/><path fill="#e6e6e6" d="M 113.664062 65.269531 C 113.957031 66.132812 114.269531 66.984375 114.578125 67.828125 C 105.960938 72.414062 98.546875 78.660156 91.402344 85.269531 C 85.636719 90.613281 79.144531 95.886719 74.222656 102.0625 C 72.835938 102.003906 71.433594 101.855469 70.183594 101.339844 C 71.828125 100.160156 73.378906 99.046875 74.765625 97.953125 C 76.722656 96.253906 78.480469 94.722656 80.078125 93.324219 C 83.136719 90.457031 85.445312 88.15625 87.179688 86.363281 C 90.609375 82.761719 91.773438 81.238281 91.566406 81.03125 C 91.351562 80.804688 89.800781 81.917969 86.085938 85.226562 C 84.230469 86.878906 81.808594 89.042969 78.707031 91.808594 C 77.121094 93.136719 75.363281 94.617188 73.414062 96.253906 C 71.828125 97.453125 70.085938 98.675781 68.214844 100.019531 C 68.070312 99.867188 67.90625 99.703125 67.777344 99.523438 C 66.683594 98.03125 65.984375 96.230469 65.320312 94.453125 C 65.613281 94.214844 65.898438 93.980469 66.183594 93.738281 C 67.597656 96.9375 68.441406 97.808594 68.957031 97.601562 C 69.492188 97.375 69.433594 96.007812 67.949219 92.265625 C 68.320312 91.972656 68.683594 91.671875 69.042969 91.363281 C 69.242188 91.65625 69.414062 91.9375 69.578125 92.1875 C 69.992188 92.851562 70.320312 93.371094 70.613281 93.738281 C 71.207031 94.480469 71.621094 94.703125 71.90625 94.566406 C 72.179688 94.453125 72.285156 94.007812 72.035156 93.066406 C 71.914062 92.578125 71.707031 91.972656 71.378906 91.214844 C 71.207031 90.84375 70.984375 90.414062 70.734375 89.957031 C 71.019531 89.722656 71.277344 89.5 71.542969 89.257812 C 72.179688 90.429688 72.636719 91.136719 72.984375 91.628906 C 73.335938 92.214844 73.707031 92.472656 74 92.414062 C 74.292969 92.371094 74.507812 92.042969 74.457031 91.128906 C 74.398438 90.351562 73.957031 89.207031 73.277344 87.8125 C 73.765625 87.414062 74.242188 87 74.722656 86.605469 C 75.222656 87.5 75.492188 88.363281 75.835938 88.878906 C 76.25 89.664062 76.601562 89.914062 76.894531 89.828125 C 77.199219 89.75 77.371094 89.355469 77.34375 88.464844 C 77.328125 88.007812 77.242188 87.398438 77.035156 86.648438 C 76.894531 86.261719 76.742188 85.828125 76.542969 85.363281 C 76.515625 85.304688 76.457031 85.226562 76.429688 85.167969 C 76.949219 84.734375 77.464844 84.296875 77.980469 83.847656 C 78.558594 84.890625 78.929688 85.785156 79.292969 86.320312 C 79.800781 87.191406 80.179688 87.457031 80.464844 87.371094 C 80.757812 87.269531 80.902344 86.828125 80.792969 85.820312 C 80.628906 85.0625 80.464844 83.925781 79.679688 82.433594 C 80.015625 82.140625 80.378906 81.839844 80.730469 81.546875 C 81.007812 81.945312 81.25 82.375 81.421875 82.804688 C 81.664062 83.410156 81.871094 83.925781 82.058594 84.3125 C 82.457031 85.105469 82.828125 85.363281 83.128906 85.269531 C 83.421875 85.167969 83.585938 84.8125 83.601562 83.960938 C 83.585938 83.511719 83.550781 82.933594 83.378906 82.183594 C 83.230469 81.605469 82.988281 80.867188 82.445312 80.097656 C 82.871094 79.730469 83.316406 79.359375 83.765625 78.988281 C 84.308594 80.246094 84.574219 81.210938 84.886719 81.839844 C 85.257812 82.683594 85.59375 82.976562 85.886719 82.933594 C 86.203125 82.875 86.410156 82.496094 86.421875 81.53125 C 86.410156 80.703125 86.335938 79.339844 85.523438 77.523438 C 86.101562 77.039062 86.671875 76.566406 87.246094 76.074219 C 87.351562 76.28125 87.472656 76.472656 87.574219 76.652344 C 87.824219 77.144531 88.074219 77.523438 88.257812 77.789062 C 88.566406 78.332031 88.921875 78.574219 89.214844 78.558594 C 89.53125 78.53125 89.746094 78.238281 89.765625 77.359375 C 89.765625 76.9375 89.636719 76.429688 89.4375 75.808594 C 89.308594 75.453125 89.144531 75.066406 88.980469 74.652344 C 89.558594 74.1875 90.136719 73.714844 90.722656 73.222656 C 90.859375 73.800781 90.980469 74.300781 91.144531 74.652344 C 91.496094 75.515625 91.816406 75.78125 92.117188 75.722656 C 92.410156 75.660156 92.636719 75.273438 92.695312 74.421875 C 92.722656 73.988281 92.753906 73.414062 92.679688 72.664062 C 92.652344 72.378906 92.59375 72.050781 92.546875 71.742188 C 92.886719 71.464844 93.230469 71.179688 93.566406 70.90625 C 93.644531 71.113281 93.710938 71.328125 93.789062 71.507812 C 94.023438 72.257812 94.203125 72.835938 94.410156 73.285156 C 94.789062 74.152344 95.132812 74.480469 95.445312 74.4375 C 95.753906 74.386719 95.945312 73.972656 95.945312 72.972656 C 95.945312 72.480469 95.902344 71.820312 95.773438 70.992188 C 95.667969 70.542969 95.53125 70.019531 95.367188 69.457031 C 95.738281 69.171875 96.109375 68.871094 96.480469 68.578125 C 96.875 69.398438 97.117188 70.25 97.4375 70.722656 C 97.847656 71.429688 98.253906 71.59375 98.523438 71.484375 C 98.816406 71.328125 98.945312 71.007812 98.945312 70.285156 C 98.945312 69.933594 98.902344 69.457031 98.789062 68.804688 C 98.6875 68.371094 98.546875 67.8125 98.21875 67.207031 C 98.632812 66.882812 99.039062 66.554688 99.453125 66.226562 C 99.703125 66.675781 99.925781 67.234375 100.054688 67.707031 C 100.296875 68.492188 100.460938 69.15625 100.632812 69.664062 C 100.976562 70.699219 101.375 71.070312 101.667969 70.972656 C 101.96875 70.886719 102.140625 70.492188 102.183594 69.441406 C 102.203125 68.90625 102.203125 68.199219 102.054688 67.25 C 101.976562 66.777344 101.859375 66.242188 101.609375 65.640625 C 101.503906 65.40625 101.375 65.140625 101.210938 64.875 C 101.582031 64.589844 101.96875 64.3125 102.347656 64.011719 C 102.78125 65.105469 102.953125 66.097656 103.238281 66.691406 C 103.582031 67.457031 103.890625 67.707031 104.191406 67.648438 C 104.496094 67.605469 104.71875 67.25 104.804688 66.449219 C 104.832031 66.054688 104.832031 65.492188 104.761719 64.796875 C 104.703125 64.441406 104.625 64.027344 104.519531 63.589844 C 104.433594 63.289062 104.304688 62.976562 104.148438 62.640625 C 104.890625 62.089844 105.617188 61.53125 106.355469 60.988281 C 106.539062 61.367188 106.640625 61.78125 106.726562 62.226562 C 106.890625 63.054688 107.003906 63.78125 107.183594 64.339844 C 107.363281 64.917969 107.597656 65.289062 107.804688 65.492188 C 108.011719 65.699219 108.175781 65.742188 108.320312 65.683594 C 108.460938 65.625 108.570312 65.476562 108.632812 65.226562 C 108.691406 64.976562 108.710938 64.632812 108.753906 64.117188 C 108.769531 63.617188 108.832031 62.933594 108.753906 61.945312 C 108.726562 61.695312 108.691406 61.425781 108.667969 61.144531 C 108.570312 60.851562 108.484375 60.523438 108.398438 60.195312 C 108.320312 60.039062 108.234375 59.875 108.148438 59.695312 C 108.398438 59.523438 108.648438 59.339844 108.898438 59.167969 C 109.761719 60.453125 109.890625 61.675781 110.140625 62.445312 C 110.390625 63.347656 110.65625 63.71875 110.96875 63.71875 C 111.269531 63.703125 111.578125 63.367188 111.726562 62.359375 C 111.796875 61.859375 111.8125 61.175781 111.667969 60.289062 C 111.546875 59.589844 111.269531 58.738281 110.699219 57.875 C 110.820312 57.789062 110.941406 57.703125 111.0625 57.609375 C 111.691406 59.417969 112.304688 61.21875 112.90625 63.019531 C 109.503906 65.804688 106.382812 67.835938 103.875 69.613281 C 101.253906 71.464844 99.246094 72.992188 97.804688 74.292969 C 96.339844 75.542969 95.445312 76.550781 94.925781 77.210938 C 94.394531 77.875 94.230469 78.238281 94.332031 78.332031 C 94.4375 78.453125 94.808594 78.308594 95.515625 77.851562 C 96.210938 77.375 97.238281 76.59375 98.789062 75.515625 C 100.304688 74.421875 102.367188 73.058594 105.03125 71.320312 C 107.417969 69.734375 110.382812 67.871094 113.664062 65.269531 " fill-opacity="1" fill-rule="nonzero"/><path fill="#666666" d="M 94.765625 130.792969 C 94.558594 130.816406 94.351562 130.878906 94.144531 130.980469 C 93.6875 131.214844 93.230469 131.457031 92.765625 131.695312 C 89.910156 127.449219 88.34375 122.492188 85.34375 118.402344 C 86.703125 118.566406 88.074219 118.695312 89.453125 118.726562 C 90.34375 120.882812 91.332031 123.003906 92.558594 125.011719 C 92.738281 125.304688 92.972656 125.507812 93.230469 125.65625 C 93.402344 127.464844 93.996094 129.144531 94.765625 130.792969 " fill-opacity="1" fill-rule="nonzero"/><path fill="#333333" d="M 98.117188 114.636719 C 96.316406 115.988281 95.015625 117.824219 93.980469 119.867188 C 92.636719 117.074219 91.566406 114.144531 90.464844 111.230469 C 93.003906 112.402344 95.53125 113.601562 98.117188 114.636719 " fill-opacity="1" fill-rule="nonzero"/><path fill="#4d4d4d" d="M 86.292969 141.347656 C 88.316406 142.761719 89.894531 145.457031 88.859375 147.90625 C 86.066406 153.222656 77.015625 143.433594 80.421875 139.96875 C 81.851562 138.519531 85.109375 140.503906 86.292969 141.347656 " fill-opacity="1" fill-rule="nonzero"/><path fill="#4d4d4d" d="M 89.558594 133.523438 C 88.800781 134.015625 88.074219 134.53125 87.367188 135.074219 C 86.050781 132.488281 84.457031 130.078125 82.871094 127.636719 C 81.6875 125.8125 80.773438 123.8125 79.5 122.035156 C 79.414062 121.933594 79.328125 121.847656 79.25 121.761719 C 79.621094 120.589844 80.015625 119.425781 80.402344 118.273438 C 80.480469 118.375 80.550781 118.460938 80.636719 118.546875 C 84.902344 122.71875 86.308594 128.679688 89.558594 133.523438 " fill-opacity="1" fill-rule="nonzero"/><path fill="#333333" d="M 85.6875 109.121094 C 86.5 111.042969 87.238281 113.007812 87.972656 114.953125 C 85.421875 114.78125 82.886719 114.332031 80.328125 114.125 C 79.414062 111.558594 78.199219 109.042969 77.621094 106.378906 C 80.171875 106.585938 82.695312 107.40625 85.007812 108.507812 C 85.160156 108.75 85.386719 108.957031 85.6875 109.121094 " fill-opacity="1" fill-rule="nonzero"/><path fill="#333333" d="M 83.730469 136.125 C 82.285156 135.796875 80.800781 135.796875 79.492188 136.316406 C 76.679688 131.972656 74.398438 127.40625 72.59375 122.632812 C 74.871094 122.777344 76.164062 123.46875 77.535156 125.855469 C 79.542969 129.308594 81.84375 132.609375 83.730469 136.125 " fill-opacity="1" fill-rule="nonzero"/><path fill="#333333" d="M 77.265625 116.039062 C 76.886719 117.203125 76.5 118.375 76.101562 119.53125 C 74.621094 119.003906 72.984375 118.890625 71.292969 118.902344 C 70.671875 116.996094 70.128906 115.074219 69.640625 113.109375 C 68.898438 110.078125 68.207031 107.035156 67.304688 104.070312 C 69.207031 105.226562 71.578125 105.613281 73.792969 105.75 C 74.308594 109.085938 75.714844 112.121094 76.84375 115.324219 C 76.949219 115.617188 77.09375 115.839844 77.265625 116.039062 " fill-opacity="1" fill-rule="nonzero"/><path stroke-linecap="butt" transform="matrix(1.447434, 0, 0, 1.447434, 30.361678, 88.109548)" fill="none" stroke-linejoin="miter" d="M 22.341296 55.858448 C 18.401132 55.858448 14.846889 55.035331 11.678565 53.3864 C 8.510242 51.726673 6.027399 49.413851 4.232736 46.445235 C 2.443469 43.476618 1.550186 40.105889 1.550186 36.330349 C 1.550186 32.562905 2.443469 29.194874 4.232736 26.226258 C 6.027399 23.257641 8.510242 20.947518 11.678565 19.298586 C 14.846889 17.641559 18.401132 16.813045 22.341296 16.813045 C 25.971104 16.813045 29.204198 17.455345 32.043274 18.739947 C 34.890448 20.016452 37.238353 21.86509 39.086992 24.285862 L 31.144593 31.367362 C 28.83447 28.460816 26.114138 27.006194 22.980898 27.006194 C 20.349624 27.006194 18.236509 27.853599 16.638854 29.545711 C 15.041198 31.229726 14.245069 33.491272 14.245069 36.330349 C 14.245069 39.177522 15.041198 41.447164 16.638854 43.139276 C 18.236509 44.823291 20.349624 45.665298 22.980898 45.665298 C 26.114138 45.665298 28.83447 44.205279 31.144593 41.290637 L 39.086992 48.38563 C 37.238353 50.806402 34.890448 52.660438 32.043274 53.945039 C 29.204198 55.221545 25.971104 55.858448 22.341296 55.858448 Z M 74.230013 25.821446 L 74.230013 55.000248 L 62.773852 55.000248 L 62.773852 52.225941 C 61.705151 53.329726 60.46103 54.15824 59.036094 54.714181 C 57.613857 55.259327 56.102562 55.534599 54.504906 55.534599 C 50.807629 55.534599 47.839013 54.406524 45.599057 52.147677 C 43.361799 49.891529 42.241821 46.485716 42.241821 41.92754 L 42.241821 25.821446 L 54.283609 25.821446 L 54.283609 39.857605 C 54.283609 41.846578 54.60476 43.268815 55.24706 44.127015 C 55.889361 44.979818 56.831222 45.40352 58.072643 45.40352 C 59.243898 45.40352 60.220842 44.936638 61.003478 43.997476 C 61.79151 43.052916 62.188225 41.56321 62.188225 39.531057 L 62.188225 25.821446 Z M 101.050114 53.985521 C 99.244655 55.01644 96.775306 55.534599 93.642066 55.534599 C 89.553472 55.534599 86.406738 54.549558 84.204565 52.579476 C 81.999692 50.598599 80.895907 47.638079 80.895907 43.697915 L 80.895907 36.225098 L 76.899069 36.225098 L 76.899069 27.424499 L 80.895907 27.424499 L 80.895907 19.274298 L 92.953887 19.274298 L 92.953887 27.424499 L 98.928902 27.424499 L 98.928902 36.225098 L 92.953887 36.225098 L 92.953887 43.581869 C 92.953887 44.475153 93.18328 45.174127 93.642066 45.678792 C 94.103551 46.172662 94.705371 46.420946 95.452922 46.420946 C 96.486541 46.420946 97.393318 46.151072 98.173255 45.611323 Z M 130.868517 46.199649 L 130.868517 55.000248 L 103.030991 55.000248 L 103.030991 48.072576 L 115.088971 34.624744 L 103.460091 34.624744 L 103.460091 25.821446 L 130.28289 25.821446 L 130.28289 32.762612 L 118.22491 46.199649 Z M 164.729636 35.482944 C 166.934508 36.297964 168.640114 37.493507 169.846451 39.064175 C 171.060885 40.626746 171.668102 42.505071 171.668102 44.701847 C 171.668102 47.972723 170.313334 50.506842 167.606495 52.304204 C 164.907753 54.101567 160.997275 55.000248 155.875063 55.000248 L 134.859957 55.000248 L 134.859957 17.671245 L 154.806361 17.671245 C 159.788239 17.671245 163.552984 18.56183 166.0952 20.340301 C 168.640114 22.110676 169.911221 24.472075 169.911221 27.424499 C 169.911221 29.167887 169.471326 30.735856 168.594235 32.12301 C 167.727939 33.512862 166.43794 34.63284 164.729636 35.482944 Z M 147.241786 26.471843 L 147.241786 32.020457 L 153.100756 32.020457 C 155.845377 32.020457 157.216338 31.094789 157.216338 29.24615 C 157.216338 27.397512 155.845377 26.471843 153.100756 26.471843 Z M 154.806361 46.199649 C 157.586065 46.199649 158.973219 45.222705 158.973219 43.268815 C 158.973219 41.314926 157.586065 40.34068 154.806361 40.34068 L 147.241786 40.34068 L 147.241786 46.199649 Z M 208.190181 25.821446 L 196.199669 55.585875 C 194.672181 59.388403 192.766869 62.052061 190.483733 63.579549 C 188.208694 65.117832 185.418194 65.884275 182.112235 65.884275 C 180.479496 65.884275 178.835962 65.641388 177.176235 65.155615 C 175.527304 64.677937 174.221113 64.04913 173.257662 63.266495 L 177.267993 55.000248 C 177.867113 55.459034 178.547196 55.834159 179.31094 56.120226 C 180.074684 56.406292 180.81414 56.549326 181.526608 56.549326 C 182.843594 56.549326 183.842129 56.158008 184.519513 55.378072 L 172.256428 25.821446 L 184.624764 25.821446 L 190.653754 41.457959 L 196.785296 25.821446 Z M 208.190181 25.821446 " stroke="#ffffff" stroke-width="0.966666" stroke-opacity="1" stroke-miterlimit="4"/></svg>